<svg width="40" height="40" viewBox="0 0 40 40" fill="none" xmlns="http://www.w3.org/2000/svg">
<path d="M24.5331 16.298L18.5454 21.9535L15.6718 18.9971C15.3532 18.6692 14.8286 18.6617 14.501 18.9803C14.173 19.2992 14.1655 19.8234 14.4841 20.1514L17.9307 23.6895C18.2509 24.0116 18.7683 24.0226 19.1018 23.7141L25.6877 17.5022C25.8477 17.3514 25.9411 17.1431 25.9473 16.9235C25.9534 16.7039 25.872 16.4907 25.7208 16.3311C25.4003 15.9979 24.8718 15.9833 24.5331 16.298Z" fill="white"/>
<path d="M20.0892 7.59473C13.246 7.59473 7.68164 13.1591 7.68164 20.0022C7.68164 26.8457 13.246 32.4101 20.0892 32.4101C26.9327 32.4101 32.497 26.8457 32.497 20.0022C32.497 13.1591 26.9327 7.59473 20.0892 7.59473ZM20.0892 30.7491C14.1595 30.7491 9.34264 25.9238 9.34264 20.0022C9.34264 14.0807 14.1595 9.25572 20.0892 9.25572C26.0246 9.25572 30.836 14.0671 30.836 20.0022C30.836 25.9374 26.0246 30.7491 20.0892 30.7491Z" fill="white"/>
<path d="M37.1645 15.4343L37.4386 10.5094C37.4578 10.1788 37.278 9.86834 36.9818 9.72041L32.5967 7.50304L30.3794 3.11795C30.2285 2.82435 29.92 2.6456 29.5904 2.66117L24.6571 2.92719L20.5461 0.211202C20.269 0.0285576 19.9099 0.0285576 19.6325 0.211202L15.5216 2.92719L10.597 2.65306C10.2661 2.6336 9.95593 2.81332 9.808 3.10984L7.59031 7.49493L3.20554 9.7123C2.91162 9.86283 2.73319 10.1713 2.74877 10.5013L3.02257 15.4262L0.306905 19.5372C0.124261 19.8142 0.124261 20.1733 0.306905 20.4507L3.01446 24.5698L2.74033 29.4947C2.72119 29.8253 2.90059 30.1357 3.1971 30.2837L7.5822 32.501L9.79957 36.8861C9.95009 37.1801 10.2586 37.3585 10.5885 37.3429L15.5135 37.0688L19.6244 39.7845C19.8999 39.9729 20.2625 39.9729 20.538 39.7845L24.6489 37.0688L29.5739 37.3429C29.9044 37.3621 30.2146 37.1823 30.3628 36.8861L32.5802 32.501L36.9653 30.2837C37.2589 30.1328 37.4376 29.8246 37.4221 29.4947L37.1479 24.5698L39.8636 20.4588C40.0462 20.1818 40.0462 19.8223 39.8636 19.5453L37.1645 15.4343ZM35.6196 23.8888C35.5184 24.0374 35.4714 24.2162 35.4869 24.3956L35.7442 29.0545L31.6001 31.1473C31.4422 31.2264 31.314 31.3549 31.2349 31.5129L29.1417 35.6569L24.4828 35.3997C24.3044 35.3932 24.1283 35.4393 23.9761 35.5324L20.0893 38.0988L16.2028 35.5324C16.0679 35.4412 15.9089 35.3919 15.7461 35.3912H15.7045L11.0453 35.6488L8.95252 31.5044C8.87337 31.3465 8.74522 31.2183 8.58691 31.1392L4.43442 29.0545L4.692 24.3956C4.69849 24.2171 4.6521 24.041 4.55899 23.8888L1.99288 20.002L4.55899 16.1152C4.66053 15.967 4.70757 15.7879 4.692 15.6088L4.43442 10.9496L8.5788 8.85682C8.73679 8.77766 8.86493 8.64952 8.94409 8.49153L11.0369 4.34715L15.6961 4.60473C15.8742 4.6109 16.0504 4.56483 16.2028 4.47172L20.0893 1.90561L23.9761 4.47172C24.1247 4.57327 24.3038 4.62031 24.4828 4.60473L29.1417 4.34715L31.2349 8.49153C31.314 8.64952 31.4422 8.77766 31.6001 8.85682L35.7442 10.9496L35.4869 15.6088C35.4805 15.7869 35.5268 15.9631 35.6196 16.1152L38.1861 20.002L35.6196 23.8888Z" fill="white"/>
</svg>
