<svg width="194" height="176" viewBox="0 0 194 176" fill="none" xmlns="http://www.w3.org/2000/svg">
<g clip-path="url(#clip0_1_518)">
<rect y="125" width="29" height="51" fill="url(#paint0_linear_1_518)"/>
<rect x="33" y="96" width="29" height="80" fill="url(#paint1_linear_1_518)"/>
<rect x="67" y="83" width="29" height="93" fill="url(#paint2_linear_1_518)"/>
<rect x="100" y="96" width="29" height="80" fill="url(#paint3_linear_1_518)"/>
<rect x="134" y="64" width="29" height="112" fill="url(#paint4_linear_1_518)"/>
<rect x="167" y="53" width="29" height="123" fill="url(#paint5_linear_1_518)"/>
<path d="M12.6246 85.7018C11.6314 86.1853 11.2183 87.3823 11.7018 88.3755C12.1853 89.3686 13.3823 89.7817 14.3754 89.2982L13.5 87.5L12.6246 85.7018ZM89.5 50.5L91.1933 49.4357L90.2382 47.9162L88.6245 48.7018L89.5 50.5ZM100.5 68L98.8067 69.0643L99.8039 70.6508L101.452 69.7589L100.5 68ZM185.5 22L162.415 21.3637L173.406 41.6743L185.5 22ZM13.5 87.5L14.3754 89.2982L90.3755 52.2982L89.5 50.5L88.6245 48.7018L12.6246 85.7018L13.5 87.5ZM89.5 50.5L87.8067 51.5643L98.8067 69.0643L100.5 68L102.193 66.9357L91.1933 49.4357L89.5 50.5ZM100.5 68L101.452 69.7589L170.621 32.326L169.669 30.5671L168.718 28.8082L99.5481 66.2411L100.5 68Z" fill="#1284B3"/>
</g>
<defs>
<linearGradient id="paint0_linear_1_518" x1="14.5" y1="125" x2="14.5" y2="176" gradientUnits="userSpaceOnUse">
<stop stop-color="#1385B4"/>
<stop offset="1" stop-color="#1385B4" stop-opacity="0.2"/>
</linearGradient>
<linearGradient id="paint1_linear_1_518" x1="47.5" y1="96" x2="47.5" y2="176" gradientUnits="userSpaceOnUse">
<stop stop-color="#0675A4"/>
<stop offset="1" stop-color="#0675A4" stop-opacity="0.1"/>
</linearGradient>
<linearGradient id="paint2_linear_1_518" x1="81.5" y1="83" x2="81.5" y2="176" gradientUnits="userSpaceOnUse">
<stop stop-color="#1385B4"/>
<stop offset="1" stop-color="#1385B4" stop-opacity="0.2"/>
</linearGradient>
<linearGradient id="paint3_linear_1_518" x1="114.5" y1="96" x2="114.5" y2="176" gradientUnits="userSpaceOnUse">
<stop stop-color="#0675A4"/>
<stop offset="1" stop-color="#0675A4" stop-opacity="0.1"/>
</linearGradient>
<linearGradient id="paint4_linear_1_518" x1="148.5" y1="64" x2="148.5" y2="176" gradientUnits="userSpaceOnUse">
<stop stop-color="#1385B4"/>
<stop offset="1" stop-color="#1385B4" stop-opacity="0.2"/>
</linearGradient>
<linearGradient id="paint5_linear_1_518" x1="181.5" y1="53" x2="181.5" y2="176" gradientUnits="userSpaceOnUse">
<stop stop-color="#0675A4"/>
<stop offset="1" stop-color="#0675A4" stop-opacity="0.1"/>
</linearGradient>
<clipPath id="clip0_1_518">
<rect width="194" height="176" fill="white"/>
</clipPath>
</defs>
</svg>
