<svg width="120" height="120" viewBox="0 0 120 120" fill="none" xmlns="http://www.w3.org/2000/svg">
<path d="M86.8485 70.7039L95.1637 55.9103L86.0194 42.0028L76.7895 56.4363L86.851 70.7039H86.8486H86.8485ZM86.1954 32.2374L102.001 55.8985L87.0359 81.0328L70.5078 56.204L86.193 32.2374H86.1954Z" fill="#026994"/>
<path d="M38.7576 94.9827C38.756 94.9844 38.7546 94.9861 38.7529 94.9874C38.7532 94.987 38.7546 94.9854 38.7576 94.9827ZM78.5917 75.6619L78.1493 79.3656C77.6721 82.9897 76.7399 86.5987 75.0795 89.8567C73.6397 92.6513 71.0375 96.1922 67.5796 96.1108C67.5668 96.1106 67.5408 96.1108 67.5479 96.1092C67.5483 96.1072 67.5486 96.1075 67.55 96.1051C67.555 96.1015 67.56 96.0978 67.5425 96.0846C67.5085 96.0589 67.3958 95.9571 67.2836 95.7936C67.1689 95.6307 67.0519 95.4182 66.9433 95.188C66.8351 94.9556 66.7336 94.7034 66.6392 94.4414C66.4507 93.9156 66.2871 93.3539 66.1377 92.7807C65.1036 88.5867 64.5685 84.2738 63.6442 80.0396C62.9577 76.875 62.1701 73.6934 60.7542 70.7335C60.5248 70.2563 60.2503 69.7755 59.9411 69.3453C56.4565 64.5275 49.1405 64.9362 46.1429 70.0558C45.8701 70.509 45.622 71.0141 45.3984 71.4865C43.003 76.7716 42.164 82.5476 40.9464 88.1508C40.5688 89.9001 40.2003 91.6029 39.6277 93.2444C39.4639 93.7003 39.2767 94.167 39.0545 94.5621C39.0019 94.6538 38.9557 94.7294 38.9119 94.7938C37.085 94.553 35.607 92.8869 34.5911 91.356C33.4011 89.5295 32.5569 87.412 31.9711 85.2769C30.6463 80.6226 30.8651 75.7155 30.2667 70.9129C29.976 68.337 29.6098 65.7751 28.9817 63.23C28.5086 61.2958 27.8504 59.3978 27.0759 57.5671C26.9086 57.1726 26.6807 56.6344 26.504 56.2437C25.3649 53.7063 24.2556 51.2263 23.2683 48.6451C21.7379 44.615 21.2715 39.5625 22.1805 35.347C22.349 34.5613 22.5834 33.768 22.8741 33.0187C25.0793 27.3552 31.3311 24.5208 37.0769 23.9725C38.7376 23.8137 40.4415 24.0093 42.0724 24.359C43.5375 24.6719 44.9675 25.1032 46.3985 25.5577C46.8248 25.696 47.3646 25.8649 47.7942 25.9907C48.0855 26.0649 48.4878 26.1742 48.7808 26.2351C49.5068 26.3987 50.2934 26.5198 51.0329 26.5964C51.1995 26.6119 51.618 26.6408 51.7899 26.6567C51.9474 26.6624 52.4 26.6807 52.5479 26.6854C52.7267 26.6891 53.1212 26.6843 53.3054 26.6836C53.4557 26.6857 53.6577 26.6681 53.8098 26.6638C53.9501 26.6523 54.1794 26.6536 54.3132 26.6344C54.4609 26.6193 54.9361 26.5815 55.0656 26.5633C55.2311 26.5444 55.6428 26.4817 55.8138 26.4628C55.9547 26.4388 56.4302 26.3522 56.5563 26.3309C56.7337 26.3002 57.1093 26.2038 57.2924 26.1698C57.6063 26.0943 57.951 26.0005 58.2609 25.9098C59.17 25.6414 60.0918 25.2651 60.9756 24.9305C62.5267 24.3469 64.096 23.8009 65.7108 23.4318C67.0649 23.1165 68.4596 22.9441 69.8511 22.985C74.2818 23.1516 78.7884 24.476 82.2531 27.3202C83.1993 28.1005 84.0465 28.9994 84.778 29.9884C84.811 30.0339 84.8777 30.0447 84.9239 30.006C84.9621 29.9739 84.9671 29.9166 84.9422 29.8734C84.3183 28.7886 83.5456 27.7809 82.655 26.8819C79.715 23.922 75.723 22.1861 71.6552 21.4446C70.625 21.2605 69.5471 21.1253 68.4997 21.1108C65.985 21.0824 63.4948 21.6315 61.0926 22.327C60.2075 22.5735 59.3012 22.8847 58.4187 23.138C57.0427 23.5372 55.6014 23.7402 54.1765 23.7679C52.325 23.7966 50.4833 23.5048 48.7315 22.9204C48.5036 22.8355 48.1397 22.7114 47.9192 22.624C46.1439 21.945 44.2921 21.2781 42.4128 20.8157C40.2613 20.2725 38.0212 20.0483 35.8042 20.2783C29.6748 20.8228 23.4 23.5993 19.9742 28.9116C17.0392 33.4927 16.5638 39.6438 17.3174 44.9174C17.5822 46.7675 18.0256 48.6046 18.6645 50.3668C19.5709 52.8798 20.6414 55.3993 21.6979 57.8308C22.4755 59.6426 23.1717 61.3333 23.6863 63.1899C23.7986 63.585 23.918 64.0433 24.0103 64.4428C25.084 69.0538 25.3972 73.9903 25.7053 78.7734C25.7849 80.0972 25.9286 81.4193 26.1407 82.735C26.8677 87.1067 28.2677 91.4544 30.9548 95.0645C32.9257 97.708 35.8876 99.9086 39.3401 99.8428C42.156 99.7652 43.5661 97.1415 44.3133 94.8617C44.9415 92.9705 45.3357 91.0131 45.7082 89.1136C46.6363 84.3319 47.2886 79.4686 48.8321 74.8963C49.155 73.9778 49.4997 73.0947 49.9532 72.2467C50.8 70.6494 52.5975 69.86 54.3573 70.2184C55.385 70.4195 56.3112 71.0338 56.9074 71.8956C56.9897 72.0002 57.0548 72.1256 57.1283 72.2383C57.136 72.2507 57.1425 72.2595 57.1509 72.275L57.1758 72.3205C58.0485 73.9117 58.6774 75.6004 59.2449 77.3561C60.7298 81.9803 61.649 87.0136 62.9238 91.7137C63.3744 93.3032 63.8343 94.9009 64.6297 96.3828C65.2046 97.4497 66.1562 98.5655 67.5117 98.5567C73.3478 98.3263 76.4941 91.8398 77.7546 86.9C78.3818 84.4493 78.7059 81.9342 78.7807 79.4153C78.8101 78.3936 78.8165 76.6966 78.833 75.6796C78.835 75.5293 78.6135 75.5081 78.5919 75.6618L78.5917 75.6619Z" fill="#026994"/>
</svg>
