<svg width="126" height="36" viewBox="0 0 126 36" fill="none" xmlns="http://www.w3.org/2000/svg">
<g clip-path="url(#clip0_1_605)">
<mask id="mask0_1_605" style="mask-type:luminance" maskUnits="userSpaceOnUse" x="0" y="0" width="35" height="35">
<path fill-rule="evenodd" clip-rule="evenodd" d="M9.32203 0.653214L10.7641 0.637695L25.764 0.643904C25.9917 0.645973 26.1337 0.649076 26.2746 0.653214C27.0181 0.672872 27.7688 0.716327 28.5041 0.849794C29.2407 0.975696 29.9549 1.21139 30.6233 1.5492C31.2892 1.88856 31.9 2.33138 32.428 2.86215C32.9562 3.39038 33.3985 4.0001 33.7383 4.66861C34.0855 5.34836 34.3031 6.04466 34.4369 6.79166C34.5696 7.52832 34.6136 8.27946 34.633 9.02439C34.6432 9.36582 34.6473 9.70724 34.6483 10.0497L34.6503 10.6591V24.1475C34.6503 24.5531 34.6503 24.9597 34.6483 25.3663C34.6462 25.7078 34.6432 26.0492 34.633 26.3906C34.6125 27.1356 34.5696 27.8877 34.4369 28.6233C34.3108 29.3626 34.0753 30.0784 33.7383 30.7464C33.3983 31.4151 32.956 32.0251 32.428 32.5539C31.8979 33.0845 31.289 33.5275 30.6233 33.8668C29.9549 34.2047 29.2407 34.4404 28.5041 34.5662C27.7688 34.6987 27.0181 34.7421 26.2746 34.7628L24.0339 34.7804L9.83166 34.7721C9.66176 34.7703 9.49187 34.7668 9.32203 34.7618C8.57852 34.7432 7.82786 34.6987 7.09253 34.5662C6.35626 34.4403 5.64245 34.2046 4.97435 33.8668C3.637 33.185 2.54619 32.093 1.85733 30.7464C1.52079 30.0782 1.28531 29.3625 1.15876 28.6233C1.02599 27.8877 0.9831 27.1356 0.963696 26.3917C0.953483 26.0502 0.950419 25.7078 0.948377 25.3663L0.945312 24.7549V11.2685C0.945312 10.8629 0.945313 10.4563 0.948377 10.0507C0.950419 9.70931 0.954504 9.36789 0.963696 9.02542C0.984122 8.28049 1.02702 7.52935 1.15876 6.7927C1.28523 6.05353 1.52072 5.33784 1.85733 4.66964C2.54519 3.32264 3.63583 2.23044 4.97333 1.5492C5.64178 1.21137 6.35592 0.975681 7.09253 0.849794C7.82786 0.717362 8.57852 0.673907 9.32203 0.653214Z" fill="white"/>
</mask>
<g mask="url(#mask0_1_605)">
<path d="M0 -0.00292969H35.5417V36.0003H0V-0.00292969Z" fill="#19AA1E"/>
<path fill-rule="evenodd" clip-rule="evenodd" d="M0 -0.00292969H35.5417V11.8094L0 6.18471V-0.00292969Z" fill="#FFB919"/>
<path fill-rule="evenodd" clip-rule="evenodd" d="M0 32.0612L35.5417 26.4365V35.9994H0V32.0612Z" fill="#82D714"/>
<path fill-rule="evenodd" clip-rule="evenodd" d="M0 5.47363L12.4062 7.43727C13.9505 6.44673 15.7877 5.90345 17.7703 5.90345C20.5165 5.90345 22.9848 6.94527 24.7811 8.77363C25.0072 9.00491 25.2205 9.246 25.4218 9.49691L35.5417 11.0984V12.522L26.4492 11.082C27.1297 12.3998 27.4862 13.8646 27.4885 15.3518C27.4885 17.2805 27.0631 19.2038 26.1822 21.1347L26.1563 21.1936L25.7815 22.0053H24.8985C23.072 22.0053 21.8615 22.5584 21.0689 23.5391C20.4475 24.3082 20.0878 25.3467 19.9672 26.4791L19.9629 26.514L19.9457 26.6951L19.9382 26.7736L19.9231 26.9275C19.8768 27.4336 19.8466 27.8624 19.8305 28.2115L35.5417 25.7242V27.1478L0 32.7736V31.35L15.7285 28.8605L15.722 28.5409L15.7198 28.4515L15.7177 28.4045L15.7155 28.3336C15.7015 27.9464 15.666 27.45 15.61 26.8478L15.5992 26.7333L15.5798 26.5358C15.4678 25.3969 15.1135 24.3464 14.4922 23.5653C13.7092 22.578 12.5106 22.0162 10.6982 22.0053H9.75908L9.38539 21.1936C8.48723 19.2431 8.05215 17.3002 8.05215 15.3518C8.05215 12.9016 9.03323 10.5322 10.7606 8.77363L10.9114 8.62418L0 6.89618V5.47363Z" fill="white"/>
<path fill-rule="evenodd" clip-rule="evenodd" d="M17.7714 7.30957C22.7339 7.30957 26.1014 11.1779 26.1014 15.3518C26.1014 17.0274 25.7406 18.7707 24.8985 20.599C20.0168 20.599 18.8117 24.1401 18.5834 26.3699L18.5683 26.5172C18.4919 27.3136 18.4466 27.9517 18.4348 28.4317L17.1123 28.6412V28.5976C17.0939 27.8886 17.0465 27.1807 16.9702 26.4757L16.9669 26.4365C16.7559 24.2121 15.5766 20.599 10.6454 20.599C9.80218 18.7707 9.44141 17.0274 9.44141 15.3518C9.44141 11.1779 12.81 7.30957 17.7714 7.30957Z" fill="#0073FA"/>
</g>
<path fill-rule="evenodd" clip-rule="evenodd" d="M52.6242 6.5459C47.1491 6.5459 43.0439 9.84372 43.0783 15.571H48.1668C48.0968 13.2801 49.57 11.0579 52.6242 11.0579C54.9396 11.0579 56.4139 12.5852 56.4139 14.5292C56.4139 16.543 54.7985 17.6535 52.2031 18.9037C48.799 20.5346 46.7636 21.2983 43.0783 22.5124V29.1081H62.0279V24.595H49.9567C51.7153 23.8695 53.4276 23.0732 54.9751 22.339C59.0803 20.3961 61.5013 18.2088 61.5013 14.287C61.5013 9.56553 57.9227 6.5459 52.6242 6.5459ZM69.7483 11.4048H79.5742V6.89281H64.8354V29.1081H69.7483V11.4048ZM87.2946 6.89281H82.3817V29.1081H87.2591L96.4183 14.911V29.1081H101.331V6.89281H96.4183L87.2946 21.0899V6.89281ZM126.001 20.7768H120.913C120.141 23.2423 117.79 24.943 115.018 24.943C110.982 24.943 108.35 21.5066 108.35 18.0004C108.35 14.4943 110.912 11.0579 115.158 11.0579C117.965 11.0579 120.141 12.7597 120.913 15.2241H126.001C125.265 10.2604 121.3 6.5459 115.018 6.5459C108.07 6.5459 103.437 11.371 103.437 18.0004C103.437 24.6299 108.07 29.455 115.018 29.455C121.3 29.455 125.265 25.8114 126.001 20.7768Z" fill="#262626"/>
</g>
<defs>
<clipPath id="clip0_1_605">
<rect width="126" height="36" fill="white"/>
</clipPath>
</defs>
</svg>
