<svg width="103" height="38" viewBox="0 0 103 38" fill="none" xmlns="http://www.w3.org/2000/svg">
<path d="M98.4697 31.9515C100.494 31.9515 101.931 31.5872 102.999 30.8211V27.2869C101.895 28.0518 100.569 28.5263 98.7278 28.5263C95.5976 28.5263 94.3083 26.1213 94.3083 22.3318C94.3083 18.3606 95.8924 16.32 98.7645 16.32C100.458 16.32 102.115 16.9022 102.999 17.4492V13.7674C102.078 13.2579 100.459 12.8936 98.2862 12.8936C92.6887 12.8936 89.7787 16.8647 89.7787 22.4407C89.7787 28.5614 92.6141 31.9515 98.4697 31.9515ZM71.0717 30.3478V26.8136C69.7102 27.7238 67.4253 28.5263 65.2907 28.5263C62.0871 28.5263 60.8712 27.0315 60.6865 23.9718H71.2564V21.6758C71.2564 15.2997 68.4198 12.8947 64.0381 12.8947C58.6987 12.8947 56.158 16.9397 56.158 22.477C56.158 28.8543 59.325 31.9515 64.9225 31.9515C67.7213 31.9515 69.7825 31.2229 71.0717 30.3478ZM30.9325 13.259V20.5102H25.0769V13.259H20.6953V31.5872H25.0769V23.9354H30.9325V31.5872H35.3142V13.259H30.9325ZM55.0902 28.162H53.1379V13.259H40.36V14.8252C40.36 19.3071 40.064 25.101 38.5178 28.162H37.1563V35.7762H41.2065V31.5872H51.0388V35.7774H55.0902V28.162ZM85.0655 31.5872H90.0368L83.0032 21.7121L89.1903 13.259H84.7707L78.5836 21.7121V13.259H74.202V31.5872H78.5836V22.5871L85.0655 31.5872ZM63.9647 16.32C66.1372 16.32 66.8002 18.1052 66.8002 20.4001V20.7644H60.6865C60.7966 17.8499 61.8657 16.32 63.9647 16.32ZM48.7563 28.162H42.5692C43.7838 25.3927 44.1153 20.4001 44.1153 17.2302V16.6843H48.7563V28.162Z" fill="black"/>
<path d="M17.0128 31.5866H12.5577V9.68795H10.5687C6.92231 9.68795 5.00793 11.5095 5.00793 14.2062C5.00793 17.2659 6.33391 18.6869 9.05926 20.5084L11.3051 22.0032L4.82442 31.5855H0L5.81891 23.0223C2.46726 20.656 0.589586 18.36 0.589586 14.4604C0.589586 9.57784 4.01345 6.2627 10.532 6.2627H17.0128V31.5866Z" fill="#FC3F1D"/>
</svg>
