<svg width="130" height="129" viewBox="0 0 130 129" fill="none" xmlns="http://www.w3.org/2000/svg">
<g clip-path="url(#clip0_1_574)">
<path d="M0.5 25.5312C0.5 20.339 4.714 16.125 9.90625 16.125H120.094C125.286 16.125 129.5 20.339 129.5 25.5312V103.469C129.5 105.963 128.509 108.356 126.745 110.12C124.981 111.884 122.588 112.875 120.094 112.875H9.90625C7.41156 112.875 5.01904 111.884 3.25503 110.12C1.49101 108.356 0.5 105.963 0.5 103.469L0.5 25.5312ZM9.90625 24.1875C9.54987 24.1875 9.20808 24.3291 8.95608 24.5811C8.70407 24.8331 8.5625 25.1749 8.5625 25.5312V103.469C8.5625 104.211 9.1645 104.812 9.90625 104.812H120.094C120.45 104.812 120.792 104.671 121.044 104.419C121.296 104.167 121.438 103.825 121.438 103.469V25.5312C121.438 25.1749 121.296 24.8331 121.044 24.5811C120.792 24.3291 120.45 24.1875 120.094 24.1875H9.90625Z" fill="#026994"/>
<path d="M48.875 83.7638V45.2358C48.8758 44.7537 49.0062 44.2808 49.2527 43.8664C49.4991 43.4521 49.8524 43.1117 50.2756 42.8809C50.6988 42.6501 51.1763 42.5373 51.658 42.5544C52.1398 42.5716 52.608 42.718 53.0138 42.9783L82.9847 62.2369C83.3642 62.48 83.6765 62.8147 83.8928 63.2102C84.1091 63.6056 84.2224 64.0491 84.2224 64.4998C84.2224 64.9505 84.1091 65.3939 83.8928 65.7894C83.6765 66.1848 83.3642 66.5195 82.9847 66.7626L53.0138 86.0266C52.608 86.2869 52.1398 86.4333 51.658 86.4505C51.1763 86.4676 50.6988 86.3548 50.2756 86.124C49.8524 85.8932 49.4991 85.5528 49.2527 85.1385C49.0062 84.7242 48.8758 84.2512 48.875 83.7691V83.7638Z" fill="#026994"/>
</g>
<defs>
<clipPath id="clip0_1_574">
<rect width="129" height="129" fill="white" transform="translate(0.5)"/>
</clipPath>
</defs>
</svg>
