<svg width="210" height="32" viewBox="0 0 210 32" fill="none" xmlns="http://www.w3.org/2000/svg">
<path d="M11.7602 10.369H3.74488V23.9427H0V6.89355H15.5051V23.9427H11.7602V10.369Z" fill="#FF4A37"/>
<path d="M19.1484 6.89344H22.8933V8.76229C23.6598 8.04098 24.481 7.48361 25.357 7.09016C26.233 6.69672 27.2185 6.5 28.3135 6.5C29.5399 6.5 30.6678 6.72951 31.6971 7.18852C32.7483 7.62568 33.6461 8.24863 34.3907 9.05738C35.1353 9.84426 35.7157 10.7842 36.1318 11.877C36.5479 12.9481 36.7559 14.1175 36.7559 15.3852C36.7559 16.6967 36.526 17.8989 36.0661 18.9918C35.6281 20.0628 35.0258 20.9918 34.2593 21.7787C33.4929 22.5437 32.5731 23.1448 31.5 23.582C30.4488 24.0191 29.3209 24.2377 28.1164 24.2377C27.0433 24.2377 26.0797 24.0738 25.2256 23.7459C24.3715 23.418 23.5941 22.959 22.8933 22.3689V30.5H19.1484V6.89344ZM27.558 20.7623C28.3026 20.7623 28.9924 20.6421 29.6275 20.4016C30.2845 20.1612 30.8539 19.8115 31.3357 19.3525C31.8175 18.8716 32.1898 18.3033 32.4526 17.6475C32.7373 16.9699 32.8797 16.2049 32.8797 15.3525C32.8797 14.5656 32.7592 13.8443 32.5183 13.1885C32.2774 12.5109 31.927 11.9426 31.4671 11.4836C31.0291 11.0027 30.5035 10.6311 29.8903 10.3689C29.2771 10.1066 28.5982 9.97541 27.8536 9.97541C26.7148 9.97541 25.7074 10.2486 24.8314 10.7951C23.9773 11.3415 23.3313 11.9973 22.8933 12.7623V17.9426C23.3313 18.8607 23.9554 19.5601 24.7657 20.041C25.576 20.5219 26.5068 20.7623 27.558 20.7623Z" fill="#FF4A37"/>
<path d="M38.7031 15.3852C38.7031 14.0956 38.9221 12.9153 39.3601 11.8443C39.7981 10.7514 40.4223 9.81147 41.2326 9.02459C42.0429 8.2377 43.0065 7.62568 44.1234 7.18852C45.2403 6.72951 46.4776 6.5 47.8354 6.5C49.1713 6.5 50.3977 6.72951 51.5146 7.18852C52.6534 7.62568 53.6279 8.2377 54.4382 9.02459C55.2485 9.81147 55.8727 10.7514 56.3107 11.8443C56.7706 12.9153 57.0005 14.0956 57.0005 15.3852C57.0005 16.6749 56.7706 17.8661 56.3107 18.959C55.8727 20.0301 55.2485 20.959 54.4382 21.7459C53.6279 22.5328 52.6534 23.1448 51.5146 23.582C50.3977 24.0191 49.1713 24.2377 47.8354 24.2377C46.4995 24.2377 45.2731 24.0191 44.1562 23.582C43.0393 23.1448 42.0757 22.5328 41.2654 21.7459C40.4551 20.959 39.82 20.0301 39.3601 18.959C38.9221 17.8661 38.7031 16.6749 38.7031 15.3852ZM42.5794 15.3852C42.5794 16.1503 42.6999 16.8607 42.9408 17.5164C43.2036 18.1721 43.5649 18.7404 44.0248 19.2213C44.4847 19.7022 45.0322 20.0847 45.6673 20.3689C46.3243 20.6311 47.047 20.7623 47.8354 20.7623C48.6238 20.7623 49.3355 20.6421 49.9706 20.4016C50.6276 20.1393 51.1861 19.7787 51.646 19.3197C52.1059 18.8388 52.4672 18.2705 52.73 17.6148C52.9928 16.959 53.1242 16.2158 53.1242 15.3852C53.1242 14.5546 52.9819 13.8115 52.6972 13.1557C52.4344 12.4781 52.0621 11.9098 51.5803 11.4508C51.0985 10.9699 50.54 10.6093 49.9049 10.3689C49.2698 10.1066 48.58 9.97541 47.8354 9.97541C47.0908 9.97541 46.39 10.1066 45.733 10.3689C45.0979 10.6093 44.5395 10.9699 44.0577 11.4508C43.5978 11.9098 43.2364 12.4781 42.9736 13.1557C42.7108 13.8115 42.5794 14.5546 42.5794 15.3852Z" fill="#FF4A37"/>
<path d="M58 20.4673H59.9776C60.7467 19.4837 61.2631 18.358 61.5268 17.0903C61.7905 15.8225 61.9223 14.3908 61.9223 12.7952V6.89355H75.6998V20.4673H78.1059V27.8444H74.6121V23.9427H61.4938V27.8444H58V20.4673ZM71.9423 20.4673V10.369H65.482V14.7296C65.482 15.7788 65.3392 16.828 65.0535 17.8771C64.7679 18.9045 64.3724 19.7679 63.867 20.4673H71.9423Z" fill="#3981F1"/>
<path d="M78.8672 15.3852C78.8672 14.0956 79.0869 12.9153 79.5264 11.8443C79.9658 10.7514 80.5921 9.81147 81.4051 9.02459C82.2181 8.2377 83.185 7.62568 84.3056 7.18852C85.4263 6.72951 86.6678 6.5 88.0302 6.5C89.3705 6.5 90.6011 6.72951 91.7217 7.18852C92.8644 7.62568 93.8422 8.2377 94.6552 9.02459C95.4682 9.81147 96.0945 10.7514 96.5339 11.8443C96.9954 12.9153 97.2261 14.0956 97.2261 15.3852C97.2261 16.6749 96.9954 17.8661 96.5339 18.959C96.0945 20.0301 95.4682 20.959 94.6552 21.7459C93.8422 22.5328 92.8644 23.1448 91.7217 23.582C90.6011 24.0191 89.3705 24.2377 88.0302 24.2377C86.6898 24.2377 85.4592 24.0191 84.3386 23.582C83.2179 23.1448 82.2511 22.5328 81.4381 21.7459C80.625 20.959 79.9878 20.0301 79.5264 18.959C79.0869 17.8661 78.8672 16.6749 78.8672 15.3852ZM82.7565 15.3852C82.7565 16.1503 82.8773 16.8607 83.119 17.5164C83.3827 18.1721 83.7453 18.7404 84.2067 19.2213C84.6682 19.7022 85.2175 20.0847 85.8548 20.3689C86.514 20.6311 87.2391 20.7623 88.0302 20.7623C88.8212 20.7623 89.5353 20.6421 90.1726 20.4016C90.8318 20.1393 91.3921 19.7787 91.8536 19.3197C92.315 18.8388 92.6776 18.2705 92.9413 17.6148C93.2049 16.959 93.3368 16.2158 93.3368 15.3852C93.3368 14.5546 93.194 13.8115 92.9083 13.1557C92.6446 12.4781 92.2711 11.9098 91.7876 11.4508C91.3042 10.9699 90.7439 10.6093 90.1067 10.3689C89.4694 10.1066 88.7773 9.97541 88.0302 9.97541C87.2831 9.97541 86.5799 10.1066 85.9207 10.3689C85.2835 10.6093 84.7231 10.9699 84.2397 11.4508C83.7783 11.9098 83.4157 12.4781 83.152 13.1557C82.8883 13.8115 82.7565 14.5546 82.7565 15.3852Z" fill="#3981F1"/>
<path d="M99.5508 6.89355H103.308V13.8116L110.724 6.89355H115.635L107.296 14.5985L115.932 23.9427H111.12L104.561 16.9263L103.308 18.1394V23.9427H99.5508V6.89355Z" fill="#3981F1"/>
<path d="M117.121 6.89355H133.272V10.369H127.075V23.9427H123.318V10.369H117.121V6.89355Z" fill="#3981F1"/>
<path d="M134.094 15.3852C134.094 14.0956 134.314 12.9153 134.754 11.8443C135.193 10.7514 135.819 9.81147 136.632 9.02459C137.445 8.2377 138.412 7.62568 139.533 7.18852C140.653 6.72951 141.895 6.5 143.257 6.5C144.598 6.5 145.828 6.72951 146.949 7.18852C148.092 7.62568 149.069 8.2377 149.882 9.02459C150.695 9.81147 151.322 10.7514 151.761 11.8443C152.223 12.9153 152.453 14.0956 152.453 15.3852C152.453 16.6749 152.223 17.8661 151.761 18.959C151.322 20.0301 150.695 20.959 149.882 21.7459C149.069 22.5328 148.092 23.1448 146.949 23.582C145.828 24.0191 144.598 24.2377 143.257 24.2377C141.917 24.2377 140.686 24.0191 139.566 23.582C138.445 23.1448 137.478 22.5328 136.665 21.7459C135.852 20.959 135.215 20.0301 134.754 18.959C134.314 17.8661 134.094 16.6749 134.094 15.3852ZM137.984 15.3852C137.984 16.1503 138.105 16.8607 138.346 17.5164C138.61 18.1721 138.972 18.7404 139.434 19.2213C139.895 19.7022 140.445 20.0847 141.082 20.3689C141.741 20.6311 142.466 20.7623 143.257 20.7623C144.048 20.7623 144.763 20.6421 145.4 20.4016C146.059 20.1393 146.619 19.7787 147.081 19.3197C147.542 18.8388 147.905 18.2705 148.168 17.6148C148.432 16.959 148.564 16.2158 148.564 15.3852C148.564 14.5546 148.421 13.8115 148.135 13.1557C147.872 12.4781 147.498 11.9098 147.015 11.4508C146.531 10.9699 145.971 10.6093 145.334 10.3689C144.697 10.1066 144.004 9.97541 143.257 9.97541C142.51 9.97541 141.807 10.1066 141.148 10.3689C140.511 10.6093 139.95 10.9699 139.467 11.4508C139.005 11.9098 138.643 12.4781 138.379 13.1557C138.116 13.8115 137.984 14.5546 137.984 15.3852Z" fill="#3981F1"/>
<path d="M154.746 6.89344H158.503V8.76229C159.272 8.04098 160.096 7.48361 160.975 7.09016C161.854 6.69672 162.843 6.5 163.942 6.5C165.172 6.5 166.304 6.72951 167.337 7.18852C168.391 7.62568 169.292 8.24863 170.039 9.05738C170.786 9.84426 171.369 10.7842 171.786 11.877C172.204 12.9481 172.412 14.1175 172.412 15.3852C172.412 16.6967 172.182 17.8989 171.72 18.9918C171.281 20.0628 170.677 20.9918 169.907 21.7787C169.138 22.5437 168.215 23.1448 167.139 23.582C166.084 24.0191 164.952 24.2377 163.744 24.2377C162.667 24.2377 161.7 24.0738 160.843 23.7459C159.986 23.418 159.206 22.959 158.503 22.3689V30.5H154.746V6.89344ZM163.184 20.7623C163.931 20.7623 164.623 20.6421 165.26 20.4016C165.919 20.1612 166.491 19.8115 166.974 19.3525C167.457 18.8716 167.831 18.3033 168.095 17.6475C168.38 16.9699 168.523 16.2049 168.523 15.3525C168.523 14.5656 168.402 13.8443 168.161 13.1885C167.919 12.5109 167.567 11.9426 167.106 11.4836C166.666 11.0027 166.139 10.6311 165.524 10.3689C164.908 10.1066 164.227 9.97541 163.48 9.97541C162.338 9.97541 161.327 10.2486 160.448 10.7951C159.591 11.3415 158.943 11.9973 158.503 12.7623V17.9426C158.943 18.8607 159.569 19.5601 160.382 20.041C161.195 20.5219 162.129 20.7623 163.184 20.7623Z" fill="#3981F1"/>
<path d="M174.277 15.3852C174.277 14.0956 174.497 12.9153 174.936 11.8443C175.376 10.7514 176.002 9.81147 176.815 9.02459C177.628 8.2377 178.595 7.62568 179.715 7.18852C180.836 6.72951 182.078 6.5 183.44 6.5C184.78 6.5 186.011 6.72951 187.132 7.18852C188.274 7.62568 189.252 8.2377 190.065 9.02459C190.878 9.81147 191.504 10.7514 191.944 11.8443C192.405 12.9153 192.636 14.0956 192.636 15.3852C192.636 16.6749 192.405 17.8661 191.944 18.959C191.504 20.0301 190.878 20.959 190.065 21.7459C189.252 22.5328 188.274 23.1448 187.132 23.582C186.011 24.0191 184.78 24.2377 183.44 24.2377C182.1 24.2377 180.869 24.0191 179.748 23.582C178.628 23.1448 177.661 22.5328 176.848 21.7459C176.035 20.959 175.398 20.0301 174.936 18.959C174.497 17.8661 174.277 16.6749 174.277 15.3852ZM178.166 15.3852C178.166 16.1503 178.287 16.8607 178.529 17.5164C178.793 18.1721 179.155 18.7404 179.617 19.2213C180.078 19.7022 180.627 20.0847 181.265 20.3689C181.924 20.6311 182.649 20.7623 183.44 20.7623C184.231 20.7623 184.945 20.6421 185.582 20.4016C186.242 20.1393 186.802 19.7787 187.263 19.3197C187.725 18.8388 188.087 18.2705 188.351 17.6148C188.615 16.959 188.747 16.2158 188.747 15.3852C188.747 14.5546 188.604 13.8115 188.318 13.1557C188.054 12.4781 187.681 11.9098 187.197 11.4508C186.714 10.9699 186.154 10.6093 185.516 10.3689C184.879 10.1066 184.187 9.97541 183.44 9.97541C182.693 9.97541 181.99 10.1066 181.331 10.3689C180.693 10.6093 180.133 10.9699 179.65 11.4508C179.188 11.9098 178.826 12.4781 178.562 13.1557C178.298 13.8115 178.166 14.5546 178.166 15.3852Z" fill="#3981F1"/>
<path d="M194.969 6.89355H202.286C204.681 6.89355 206.483 7.23235 207.692 7.90996C208.9 8.58755 209.505 9.75695 209.505 11.4181C209.505 12.205 209.329 12.8717 208.977 13.4181C208.626 13.9646 208.164 14.4564 207.593 14.8935C208.406 15.1996 209.01 15.7132 209.406 16.4345C209.801 17.134 209.999 17.9427 209.999 18.8608C209.999 20.5657 209.395 21.8444 208.186 22.6968C206.978 23.5274 205.275 23.9427 203.077 23.9427H194.969V6.89355ZM198.727 16.8935V20.5657H202.715C203.835 20.5657 204.681 20.4236 205.253 20.1394C205.824 19.8553 206.11 19.3963 206.11 18.7624C206.11 18.0848 205.835 17.6039 205.286 17.3198C204.758 17.0356 203.934 16.8935 202.814 16.8935H198.727ZM198.727 10.2706V13.6476H203.143C203.912 13.6476 204.517 13.5056 204.956 13.2214C205.396 12.9373 205.615 12.5001 205.615 11.9099C205.615 11.2105 205.319 10.7624 204.725 10.5657C204.154 10.369 203.308 10.2706 202.187 10.2706H198.727Z" fill="#3981F1"/>
</svg>
