<svg width="200" height="200" viewBox="0 0 200 200" fill="none" xmlns="http://www.w3.org/2000/svg">
<path d="M157.097 45.3514C156.449 44.2303 156.836 42.7967 157.957 42.1483L176.156 31.6405C177.277 30.992 178.711 31.3787 179.359 32.4998C180.008 33.6209 179.621 35.0545 178.5 35.703L160.301 46.2108C159.933 46.4217 159.527 46.5233 159.133 46.5233C158.32 46.5233 157.531 46.1053 157.097 45.3514ZM162.926 67.1053C162.926 68.3983 163.976 69.449 165.269 69.449H186.285C187.578 69.449 188.629 68.3983 188.629 67.1053C188.629 65.8123 187.578 64.7615 186.285 64.7615H165.269C163.976 64.7615 162.926 65.8123 162.926 67.1053ZM141.172 29.4256C141.543 29.6366 141.945 29.7381 142.34 29.7381C143.148 29.7381 143.937 29.3162 144.371 28.5662L154.879 10.367C155.527 9.24593 155.14 7.81233 154.019 7.16389C152.898 6.51936 151.465 6.90218 150.816 8.02327L140.308 26.2225C139.668 27.3475 140.051 28.7811 141.172 29.4256ZM178.426 143.5C178.426 162.758 162.758 178.422 143.504 178.422C124.246 178.422 108.582 162.754 108.582 143.5C108.582 124.242 124.25 108.578 143.504 108.578C162.758 108.578 178.426 124.246 178.426 143.5ZM173.738 143.5C173.738 126.828 160.176 113.265 143.504 113.265C126.832 113.265 113.269 126.828 113.269 143.5C113.269 160.172 126.832 173.734 143.504 173.734C160.176 173.734 173.738 160.172 173.738 143.5ZM194.14 143.504C194.14 145.215 193.402 146.738 192.058 147.793L189.23 150.019C187.715 151.211 187.301 153.297 188.242 154.98L190.004 158.121C190.84 159.613 190.937 161.305 190.285 162.883C189.633 164.461 188.363 165.586 186.719 166.051L183.254 167.027C181.398 167.551 180.215 169.32 180.445 171.234L180.871 174.808C181.074 176.504 180.519 178.105 179.308 179.312C178.097 180.519 176.5 181.074 174.804 180.875L171.23 180.449C169.316 180.223 167.547 181.402 167.023 183.258L166.047 186.723C165.582 188.367 164.457 189.633 162.879 190.289C161.301 190.945 159.609 190.844 158.117 190.008L154.976 188.25C153.297 187.305 151.211 187.723 150.015 189.238L147.789 192.066C146.73 193.41 145.207 194.148 143.5 194.148C141.793 194.148 140.265 193.41 139.207 192.066L136.98 189.238C135.789 187.723 133.703 187.308 132.019 188.25L128.879 190.008C127.386 190.844 125.695 190.941 124.117 190.289C122.539 189.637 121.414 188.367 120.949 186.723L119.972 183.258C119.449 181.402 117.679 180.223 115.765 180.449L112.191 180.875C110.492 181.078 108.894 180.519 107.683 179.312C106.476 178.105 105.922 176.504 106.121 174.808L106.547 171.234C106.773 169.32 105.594 167.551 103.738 167.027L100.273 166.051C98.6287 165.586 97.363 164.461 96.7068 162.883C96.0545 161.305 96.1521 159.613 96.988 158.121L98.7458 154.98C99.6873 153.301 99.2732 151.211 97.7576 150.019L94.9294 147.793C93.5857 146.734 92.8474 145.211 92.8474 143.504C92.8474 141.797 93.5857 140.273 94.9294 139.215L97.7576 136.988C99.2732 135.797 99.6873 133.711 98.7458 132.027L96.988 128.887C96.1521 127.398 96.0505 125.707 96.7068 124.125C97.3591 122.547 98.6287 121.422 100.273 120.957L103.738 119.98C105.152 119.582 106.172 118.461 106.476 117.101C98.6052 117.566 90.7068 119.945 82.9646 124.207L75.3591 128.597L92.5349 158.344C95.6951 163.816 93.8123 170.844 88.3396 174.004L85.8552 175.437C84.0974 176.453 82.1443 176.969 80.1599 176.969C79.1599 176.969 78.1521 176.836 77.1599 176.57C74.1951 175.777 71.7224 173.883 70.1951 171.238L53.0193 141.492L52.4138 141.84C50.6833 142.84 48.7576 143.351 46.8044 143.351C45.8201 143.351 44.8279 143.223 43.8474 142.961C41.1755 142.246 38.9099 140.621 37.3943 138.355L36.8826 138.652C33.7107 140.484 30.1833 141.418 26.6052 141.418C24.7966 141.418 22.9763 141.18 21.1833 140.699C15.8279 139.265 11.363 135.847 8.60913 131.074C2.9021 121.187 6.30054 108.504 16.1873 102.797L16.699 102.5C15.4958 100.055 15.2224 97.2811 15.9373 94.6092C16.7185 91.6873 18.5857 89.2537 21.1873 87.7498L51.738 70.1131C69.9802 59.0741 78.9099 42.2772 77.5623 21.535C77.3943 20.1444 77.4919 18.7186 77.8669 17.3201C78.6365 14.449 80.4724 12.0545 83.031 10.574L88.6365 7.33968C91.199 5.86311 94.1912 5.47249 97.0583 6.24202C99.9294 7.01155 102.328 8.84749 103.804 11.4061L116.246 32.953C129.226 32.7342 141.176 39.4647 147.703 50.7694C154.23 62.078 154.082 75.7967 147.406 86.9217L154.394 99.0233C154.59 98.953 154.785 98.867 154.972 98.7616L158.113 97.0037C159.605 96.1678 161.297 96.0662 162.875 96.7225C164.453 97.3748 165.578 98.6405 166.043 100.285L167.019 103.75C167.543 105.605 169.308 106.785 171.226 106.558L174.801 106.133C176.5 105.933 178.097 106.488 179.304 107.695C180.511 108.902 181.066 110.504 180.867 112.199L180.441 115.773C180.215 117.687 181.394 119.457 183.25 119.98L186.715 120.957C188.359 121.422 189.625 122.547 190.281 124.125C190.933 125.703 190.836 127.394 190 128.887L188.242 132.027C187.301 133.707 187.715 135.797 189.23 136.988L192.058 139.215C193.402 140.269 194.14 141.793 194.14 143.504ZM119.004 37.7108L144.668 82.1639C149.176 72.9647 148.871 62.1522 143.652 53.1131C138.437 44.0741 129.222 38.4061 119.004 37.7108ZM83.0388 23.4022L125.183 96.4022C126.441 96.1522 127.722 96.3514 128.883 96.9998L132.023 98.7576C133.703 99.6991 135.793 99.285 136.984 97.7694L139.211 94.9412C140.269 93.5975 141.793 92.8592 143.5 92.8592C144.281 92.8592 145.019 93.0194 145.695 93.3162L99.7576 13.7498C98.906 12.2733 97.5193 11.2147 95.8591 10.7694C94.199 10.324 92.4685 10.5467 90.9919 11.4022L85.3865 14.6366C83.9099 15.4881 82.8513 16.8748 82.406 18.535C81.9607 20.1951 82.1873 21.9256 83.0388 23.4022ZM56.1013 72.9139L82.7302 119.039C90.4333 115.113 98.2927 112.898 106.16 112.43L106.133 112.203C105.929 110.508 106.484 108.906 107.695 107.699C108.902 106.492 110.504 105.933 112.203 106.137L115.777 106.562C117.695 106.793 119.461 105.609 119.984 103.754L120.961 100.289C121.07 99.9061 121.215 99.5467 121.394 99.2069L82.1208 31.1873C80.4919 48.3787 71.4919 62.9061 56.1013 72.9139ZM34.5505 134.594L35.0388 134.312L19.0271 106.578L18.5388 106.859C14.8513 108.988 12.2107 112.441 11.1013 116.59C9.99194 120.738 10.5505 125.047 12.6794 128.734C14.8083 132.422 18.2615 135.062 22.4099 136.172C26.5505 137.285 30.8669 136.722 34.5505 134.594ZM71.3123 130.941L57.0896 139.152L74.2654 168.898C75.1638 170.457 76.6287 171.574 78.3826 172.043C80.1365 172.512 81.9646 172.277 83.5232 171.375L86.0076 169.941C87.5662 169.043 88.6833 167.578 89.1521 165.824C89.6208 164.07 89.3865 162.242 88.4841 160.683L71.3123 130.941ZM78.6287 121.305L52.0857 75.3319L23.5427 91.8123C20.3865 93.6326 19.3044 97.6834 21.1248 100.836L41.0623 135.367C41.9412 136.887 43.3669 137.976 45.0779 138.433C46.7888 138.89 48.5701 138.66 50.0896 137.785L78.6287 121.305ZM189.453 143.504C189.453 143.234 189.371 143.062 189.156 142.894L186.328 140.668C182.992 138.039 182.074 133.441 184.152 129.734L185.91 126.594C186.043 126.359 186.054 126.168 185.949 125.918C185.844 125.668 185.703 125.543 185.445 125.469L181.98 124.492C177.89 123.34 175.285 119.441 175.785 115.222L176.211 111.648C176.242 111.379 176.179 111.199 175.988 111.008C175.797 110.816 175.617 110.754 175.347 110.785L171.773 111.211C167.554 111.711 163.656 109.105 162.504 105.015L161.527 101.551C161.453 101.289 161.328 101.148 161.078 101.047C160.828 100.945 160.636 100.957 160.402 101.086L157.261 102.844C153.554 104.922 148.957 104.008 146.328 100.668L144.101 97.8397C143.933 97.6287 143.765 97.5428 143.492 97.5428C143.222 97.5428 143.051 97.6248 142.883 97.8397L140.656 100.668C138.027 104.004 133.429 104.922 129.722 102.844L126.582 101.086C126.347 100.953 126.156 100.941 125.91 101.047C125.66 101.152 125.535 101.293 125.461 101.551L124.484 105.015C123.332 109.105 119.433 111.711 115.215 111.211L111.64 110.785C111.371 110.754 111.191 110.816 111 111.008C110.808 111.199 110.746 111.379 110.777 111.648L111.203 115.222C111.703 119.441 109.097 123.34 105.008 124.492L101.543 125.469C101.281 125.543 101.14 125.668 101.039 125.918C100.937 126.168 100.945 126.355 101.078 126.594L102.84 129.734C104.918 133.441 104 138.039 100.664 140.668L97.8357 142.894C97.6248 143.062 97.5388 143.234 97.5388 143.504C97.5388 143.773 97.6208 143.945 97.8357 144.113L100.664 146.34C104 148.969 104.918 153.566 102.84 157.273L101.082 160.414C100.949 160.648 100.937 160.84 101.043 161.09C101.148 161.34 101.289 161.465 101.547 161.539L105.011 162.515C109.101 163.668 111.707 167.566 111.207 171.785L110.781 175.359C110.75 175.629 110.812 175.808 111.004 176C111.195 176.191 111.375 176.254 111.644 176.222L115.219 175.797C119.437 175.297 123.336 177.902 124.488 181.992L125.465 185.457C125.539 185.719 125.664 185.859 125.914 185.961C126.164 186.066 126.355 186.055 126.59 185.922L129.73 184.164C131.062 183.418 132.511 183.058 133.941 183.058C136.488 183.058 138.98 184.203 140.664 186.34L142.89 189.168C143.058 189.379 143.23 189.465 143.5 189.465C143.769 189.465 143.941 189.383 144.105 189.172L146.332 186.344C148.961 183.008 153.558 182.09 157.265 184.168L160.406 185.926C160.64 186.058 160.832 186.07 161.082 185.965C161.332 185.859 161.457 185.719 161.531 185.461L162.508 181.996C163.66 177.906 167.554 175.305 171.777 175.801L175.351 176.226C175.617 176.258 175.801 176.195 175.992 176.004C176.183 175.812 176.246 175.633 176.215 175.363L175.789 171.789C175.289 167.57 177.894 163.672 181.984 162.519L185.449 161.543C185.711 161.469 185.851 161.344 185.953 161.094C186.054 160.844 186.047 160.656 185.914 160.418L184.156 157.277C182.078 153.57 182.992 148.973 186.332 146.344L189.16 144.117C189.371 143.941 189.453 143.773 189.453 143.504ZM162.711 124.715C161.804 123.789 160.32 123.773 159.398 124.68L124.332 158.976C123.406 159.883 123.39 161.367 124.297 162.289C124.754 162.758 125.363 162.992 125.972 162.992C126.562 162.992 127.156 162.769 127.613 162.324L162.679 128.027C163.597 127.125 163.617 125.64 162.711 124.715ZM121.636 131.117C121.636 125.812 125.953 121.492 131.261 121.492C136.57 121.492 140.886 125.808 140.886 131.117C140.886 136.426 136.57 140.742 131.261 140.742C125.953 140.742 121.636 136.422 121.636 131.117ZM126.324 131.117C126.324 133.84 128.539 136.055 131.261 136.055C133.984 136.055 136.199 133.84 136.199 131.117C136.199 128.394 133.984 126.18 131.261 126.18C128.539 126.18 126.324 128.394 126.324 131.117ZM165.367 155.887C165.367 161.191 161.051 165.512 155.742 165.512C150.433 165.512 146.117 161.195 146.117 155.887C146.117 150.578 150.433 146.262 155.742 146.262C161.051 146.262 165.367 150.582 165.367 155.887ZM160.679 155.887C160.679 153.164 158.465 150.949 155.742 150.949C153.019 150.949 150.804 153.164 150.804 155.887C150.804 158.609 153.019 160.824 155.742 160.824C158.465 160.824 160.679 158.609 160.679 155.887Z" fill="#D3DEEA"/>
</svg>
