<svg width="64" height="64" viewBox="0 0 64 64" fill="none" xmlns="http://www.w3.org/2000/svg">
<path d="M42.0908 1.86544C37.5394 -0.125956 34.8819 1.29831 33.1216 2.24017C32.4554 2.59767 31.8797 2.90492 31.4274 2.9121C30.9694 2.9121 30.3908 2.62495 29.7146 2.28611C27.9314 1.3902 25.2379 0.0377203 20.7411 2.14828C18.2213 3.33134 15.1819 6.26459 15.0053 13.5223C14.9105 17.4061 16.1137 19.7492 17.2781 22.0148C17.8839 23.195 18.5099 24.4154 18.945 25.8583C19.0555 26.2259 19.2422 26.5504 19.4819 26.8217V31.7277C19.4819 32.9725 20.4942 33.9847 21.739 33.9847H22.8976L23.1934 36.7227C21.1718 37.5583 21.5968 40.4514 23.6456 40.9137L23.8222 42.5519C21.7188 43.3645 22.1625 46.3466 24.2788 46.7759L24.4525 48.3825C22.2745 49.1693 22.7282 52.2375 24.912 52.6309L25.0814 54.2059C22.7698 54.9769 23.3283 58.259 25.6614 58.4959C27.8366 65.2196 37.5725 64.1011 38.1396 57.0157C38.342 56.9597 38.5416 56.9023 38.734 56.8448C39.3083 56.6725 39.7677 56.2806 40.0262 55.7407C40.6277 54.5333 39.8769 52.9898 38.6134 52.6323L38.79 50.9956C38.9967 50.9324 39.2035 50.8678 39.4102 50.8003C39.973 50.6151 40.4339 50.2001 40.6751 49.6603C41.2279 48.4715 40.4942 46.9754 39.2638 46.6122L39.4433 44.9568C39.6701 44.8821 39.8912 44.806 40.1051 44.7285C40.9465 44.4241 41.4906 43.6431 41.4906 42.7371C41.5064 41.7794 40.8087 40.8548 39.9156 40.5777L40.0965 38.8993C40.9723 38.6093 41.6945 38.2963 42.0176 37.3573C42.4325 36.2288 41.7103 34.8548 40.5718 34.5016L40.6277 33.9876H41.7519C42.9967 33.9876 44.009 32.9754 44.009 31.7306C44.0104 31.7277 44.009 26.8146 44.009 26.8103C44.2516 26.5346 44.4382 26.2072 44.5445 25.8397C44.9494 24.4456 45.5108 23.2209 46.0535 22.0364C47.1734 19.5927 48.3306 17.0658 48.1281 13.0887C47.7591 5.83674 44.645 2.98389 42.0951 1.86831L42.0908 1.86544ZM38.164 40.6998C33.8883 42.1872 28.7009 42.4384 25.5394 42.4284L25.3858 40.9998C30.609 41.1118 35.594 40.292 38.2975 39.4736L38.1654 40.6998H38.164ZM37.5122 46.7385C35.1805 47.465 31.436 48.2576 26.1711 48.2719L26.0161 46.839C31.0355 46.8577 35.034 46.1772 37.6486 45.4823L37.5122 46.7385ZM36.8632 52.7615C34.7038 53.3674 31.3442 54.025 26.8014 54.0982L26.6478 52.6711C31.1245 52.6294 34.5976 52.0609 37.0025 51.4794L36.8646 52.763L36.8632 52.7615ZM31.7591 61.2827C29.8739 61.2827 28.2142 60.1528 27.4877 58.4859C30.655 58.4084 33.6241 58.0652 36.342 57.4608C35.9429 59.6618 34.029 61.2827 31.7591 61.2827ZM38.4684 54.9941C38.4353 55.0616 38.3693 55.1521 38.2343 55.1923C35.0843 56.1025 31.459 56.7687 25.8596 56.7831C25.5782 56.7831 25.3226 56.529 25.3183 56.2418C25.324 55.9805 25.4633 55.8398 25.7246 55.8297C31.1245 55.8728 35.538 54.9884 37.8395 54.2734C38.2056 54.1485 38.6536 54.628 38.4684 54.9956V54.9941ZM39.0987 48.9553C39.0671 49.0243 39.0025 49.1161 38.8704 49.1607C38.5014 49.2813 38.1281 49.3947 37.7577 49.4995C35.403 50.1958 30.7426 51.0559 25.2867 50.9424C24.9981 50.9381 24.7411 50.6739 24.7454 50.3954C24.7555 50.1312 24.8904 50.0078 25.1489 49.9891C31.2652 50.1011 35.9716 49.0889 38.4397 48.2504C38.8144 48.1082 39.2738 48.5763 39.0987 48.9553ZM39.5165 43.1046C35.8826 44.3451 31.7174 45.2166 24.7038 45.0989C24.2946 45.1003 23.9888 44.5404 24.2817 44.2504C24.3721 44.1384 24.5904 44.1326 24.7583 44.1441C27.9931 44.1987 34.1252 44.0207 39.0786 42.2044C39.571 42.0221 40.0879 42.8405 39.5165 43.1046ZM40.3822 36.7974C40.3564 36.8735 40.2975 36.9754 40.164 37.0285C39.7936 37.175 39.4102 37.3157 39.0197 37.4463C36.2875 38.3982 30.9551 39.5153 24.1209 39.2468C23.838 39.2367 23.5896 38.9797 23.5896 38.6911C23.5896 38.5447 23.6528 38.4528 23.7059 38.4025C23.7792 38.3121 23.9701 38.2805 24.118 38.2977C29.6658 38.4772 33.7677 37.8053 36.2329 37.208C37.8165 36.8232 38.9896 36.4083 39.6974 36.1283C40.0764 35.9747 40.5215 36.447 40.3808 36.7988L40.3822 36.7974ZM38.8216 34.6193C38.1539 34.8735 37.1475 35.2123 35.828 35.5325C33.5768 36.0766 29.8926 36.6868 24.9105 36.5935L24.6291 33.9847H38.889L38.8201 34.6208L38.8216 34.6193ZM42.2803 31.7263C42.2803 32.0206 42.0405 32.2604 41.7462 32.2604H23.6643H21.7375C21.4432 32.2604 21.2034 32.0206 21.2034 31.7263V27.6731H42.2803V31.7263ZM44.4813 21.3156C43.9128 22.5561 43.3255 23.8397 42.8848 25.3558C42.7814 25.7119 42.4684 25.9502 42.1051 25.9502H21.3714C21.0125 25.9502 20.7009 25.7133 20.5947 25.3601C19.2307 20.882 16.5932 18.9394 16.7282 13.5625C16.8832 7.18491 19.3944 4.68239 21.4733 3.70608C23.9672 2.53593 25.6772 2.58906 27.0599 3.01404C31.6069 4.8475 32.2544 5.58404 33.4791 7.02554C33.4992 7.04851 33.5308 7.08728 33.5595 7.11743C34.0965 7.65871 35.047 7.2567 35.0283 6.49288C35.0269 6.31197 34.9637 6.13394 34.856 5.98749C34.7584 5.85827 34.2157 5.17772 32.9551 4.2531C35.482 3.05855 36.9436 1.58403 41.4002 3.4419C43.5036 4.36222 46.0793 6.79869 46.4024 13.172C46.5833 16.7284 45.5624 18.9552 44.4813 21.3142V21.3156Z" fill="#E6F0F8"/>
<path d="M19.9111 6.8676C17.9067 8.6307 17.7344 13.3515 18.4954 15.8281C18.6332 16.2876 19.13 16.5388 19.5722 16.3981C20.0273 16.2589 20.2829 15.7765 20.1422 15.3213C19.3497 12.7413 19.9814 9.1002 21.0496 8.16121C21.8795 7.3816 20.7955 6.14254 19.9111 6.8676Z" fill="#E6F0F8"/>
</svg>
