<svg width="64" height="64" viewBox="0 0 64 64" fill="none" xmlns="http://www.w3.org/2000/svg">
<g clip-path="url(#clip0_1_451)">
<mask id="path-1-outside-1_1_451" maskUnits="userSpaceOnUse" x="-1" y="3.13745" width="66" height="58" fill="black">
<rect fill="white" x="-1" y="3.13745" width="66" height="58"/>
<path d="M20.7 51.4749H26.5125C26.925 51.4749 27.25 51.1375 27.25 50.7374V44.9249C27.25 44.5125 26.925 44.1875 26.5125 44.1875H20.7C20.2875 44.1875 19.9625 44.5125 19.9625 44.9249V50.7374C19.9625 51.1499 20.2875 51.4749 20.7 51.4749ZM21.4375 50V45.6624H25.775V50H21.4375ZM44.5375 49.4249C44.5 49.2374 44.5375 49.0374 44.65 48.875C44.7625 48.7125 44.925 48.5999 45.125 48.5625C45.3125 48.525 45.5125 48.5625 45.675 48.6749L48.45 50.575L54.5125 41.7C54.7375 41.3624 55.2 41.275 55.5375 41.5125C55.7 41.625 55.8125 41.7874 55.85 41.9874C55.8875 42.1875 55.85 42.375 55.7375 42.5374L49.2625 52.025C49.125 52.225 48.9 52.3499 48.65 52.3499C48.5 52.3499 48.3625 52.2999 48.2375 52.2249L44.85 49.9124C44.6875 49.7874 44.575 49.625 44.5375 49.4249ZM59.425 36.1124V12.275C59.425 10.0125 57.5875 8.17495 55.325 8.17495H50.225V6.91245C50.225 5.38745 48.975 4.13745 47.45 4.13745C45.925 4.13745 44.675 5.37495 44.675 6.91245V8.17495H38.3875V6.91245C38.3875 5.38745 37.1375 4.13745 35.6125 4.13745C34.0875 4.13745 32.8375 5.37495 32.8375 6.91245V8.17495H26.55V6.91245C26.55 5.38745 25.3 4.13745 23.775 4.13745C22.25 4.13745 21 5.37495 21 6.91245V8.17495H14.7125V6.91245C14.7125 5.38745 13.475 4.13745 11.9375 4.13745C10.4 4.13745 9.1625 5.37495 9.1625 6.91245V8.17495H4.1C1.8375 8.17495 0 10.025 0 12.275V52.75C0 55.0125 1.8375 56.8499 4.1 56.8499H41.925C44.325 58.7874 47.35 59.8499 50.425 59.8499C57.9125 59.8499 64 53.7625 64 46.275C64 42.4 62.3375 38.7 59.425 36.1124ZM57.95 34.9749C55.725 33.4874 53.125 32.7 50.425 32.7C46.0875 32.7 42.0375 34.775 39.475 38.2625V34.6375C39.475 34.225 39.15 33.9 38.7375 33.9H32.925C32.5125 33.9 32.1875 34.225 32.1875 34.6375V40.45C32.1875 40.8624 32.5125 41.1875 32.925 41.1875H37.85C37.4625 42.15 37.1875 43.1499 37.025 44.1749H32.925C32.5125 44.1749 32.1875 44.5 32.1875 44.9124V50.7249C32.1875 51.1374 32.5125 51.4625 32.925 51.4625H37.875C38.4625 52.875 39.3125 54.2124 40.35 55.3624H4.1C2.65 55.3624 1.475 54.1875 1.475 52.7374V19.7125H57.9625L57.95 34.9749ZM37.3625 50H33.65V45.6624H36.8625C36.85 45.875 36.85 46.075 36.85 46.275C36.8375 47.5375 37.0125 48.7874 37.3625 50ZM33.65 39.7249V35.375H37.9875V39.7125L33.65 39.7249ZM50.425 34.1749C57.1 34.1749 62.525 39.6 62.525 46.275C62.525 52.95 57.1 58.375 50.425 58.375C43.75 58.375 38.325 52.95 38.325 46.275C38.3125 39.6 43.75 34.1749 50.425 34.1749ZM4.1 9.64995H9.1875V10.9125C9.1875 12.4375 10.425 13.6875 11.9625 13.6875C13.5 13.6875 14.7375 12.45 14.7375 10.9125V9.64995H21.025V10.9125C21.025 12.4375 22.275 13.6875 23.8 13.6875C25.325 13.6875 26.575 12.45 26.575 10.9125V9.64995H32.8625V10.9125C32.8625 12.4375 34.1125 13.6875 35.6375 13.6875C37.1625 13.6875 38.4125 12.45 38.4125 10.9125V9.64995H44.7V10.9125C44.7 12.4375 45.95 13.6875 47.475 13.6875C49 13.6875 50.25 12.45 50.25 10.9125V9.64995H55.35C56.8 9.64995 57.975 10.825 57.975 12.275V18.2375H1.475V12.275C1.475 10.8375 2.65 9.64995 4.1 9.64995ZM48.75 10.9125C48.75 11.625 48.175 12.2125 47.45 12.2125C46.725 12.2125 46.15 11.6375 46.15 10.9125V6.91245C46.15 6.19995 46.725 5.61245 47.45 5.61245C48.175 5.61245 48.75 6.19995 48.75 6.91245V10.9125ZM36.925 10.9125C36.925 11.625 36.35 12.2125 35.625 12.2125C34.9 12.2125 34.325 11.6375 34.325 10.9125V6.91245C34.325 6.19995 34.9 5.61245 35.625 5.61245C36.35 5.61245 36.925 6.18745 36.925 6.91245V10.9125ZM25.0875 10.9125C25.0875 11.625 24.5125 12.2125 23.7875 12.2125C23.0625 12.2125 22.5 11.6375 22.5 10.9125V6.91245C22.5 6.19995 23.075 5.61245 23.8 5.61245C24.525 5.61245 25.1 6.18745 25.1 6.91245L25.0875 10.9125ZM13.2625 10.9125C13.2625 11.625 12.6875 12.2125 11.9625 12.2125C11.2375 12.2125 10.6625 11.6375 10.6625 10.9125V6.91245C10.675 6.19995 11.25 5.62495 11.9625 5.62495C12.675 5.62495 13.2625 6.19995 13.2625 6.92495V10.9125ZM45.125 30.9125H50.9375C51.35 30.9125 51.675 30.5875 51.675 30.1749V24.3624C51.675 23.9499 51.3375 23.625 50.9375 23.625H45.125C44.7125 23.625 44.3875 23.9499 44.3875 24.3624V30.1749C44.3875 30.5749 44.7125 30.9125 45.125 30.9125ZM45.8625 29.4375V25.1H50.2V29.4375H45.8625ZM8.4875 41.2H14.3C14.7125 41.2 15.0375 40.8625 15.0375 40.4625V34.65C15.0375 34.2375 14.7125 33.9124 14.3 33.9124H8.4875C8.075 33.9124 7.75 34.25 7.75 34.65V40.4625C7.7375 40.8625 8.075 41.2 8.4875 41.2ZM13.5625 35.375V39.7125H9.225V35.375H13.5625ZM20.7 41.2H26.5125C26.925 41.2 27.25 40.8625 27.25 40.4625V34.65C27.25 34.2375 26.925 33.9124 26.5125 33.9124H20.7C20.2875 33.9124 19.9625 34.25 19.9625 34.65V40.4625C19.9625 40.8625 20.2875 41.2 20.7 41.2ZM21.4375 39.7249V35.375H25.775V39.7125L21.4375 39.7249ZM8.4875 30.9125H14.3C14.7125 30.9125 15.0375 30.5875 15.0375 30.1749V24.3624C15.0375 23.9499 14.7125 23.625 14.3 23.625H8.4875C8.075 23.625 7.75 23.9499 7.75 24.3624V30.1749C7.7375 30.5749 8.075 30.9125 8.4875 30.9125ZM13.5625 25.1V29.4375H9.225V25.1H13.5625ZM32.9125 30.9125H38.725C39.1375 30.9125 39.4625 30.5875 39.4625 30.1749V24.3624C39.4625 23.9499 39.1375 23.625 38.725 23.625H32.9125C32.5 23.625 32.175 23.9499 32.175 24.3624V30.1749C32.175 30.5749 32.5 30.9125 32.9125 30.9125ZM33.65 29.4375V25.1H37.9875V29.4375H33.65ZM8.4875 51.4749H14.3C14.7125 51.4749 15.0375 51.1375 15.0375 50.7374V44.9249C15.0375 44.5125 14.7125 44.1875 14.3 44.1875H8.4875C8.075 44.1875 7.75 44.5125 7.75 44.9249V50.7374C7.7375 51.1499 8.075 51.4749 8.4875 51.4749ZM13.5625 45.6624V50H9.225V45.6624H13.5625ZM20.7 30.9125H26.5125C26.925 30.9125 27.25 30.5875 27.25 30.1749V24.3624C27.25 23.9499 26.925 23.625 26.5125 23.625H20.7C20.2875 23.625 19.9625 23.9499 19.9625 24.3624V30.1749C19.9625 30.5749 20.2875 30.9125 20.7 30.9125ZM21.4375 29.4375V25.1H25.775V29.4375H21.4375Z"/>
</mask>
<path d="M20.7 51.4749H26.5125C26.925 51.4749 27.25 51.1375 27.25 50.7374V44.9249C27.25 44.5125 26.925 44.1875 26.5125 44.1875H20.7C20.2875 44.1875 19.9625 44.5125 19.9625 44.9249V50.7374C19.9625 51.1499 20.2875 51.4749 20.7 51.4749ZM21.4375 50V45.6624H25.775V50H21.4375ZM44.5375 49.4249C44.5 49.2374 44.5375 49.0374 44.65 48.875C44.7625 48.7125 44.925 48.5999 45.125 48.5625C45.3125 48.525 45.5125 48.5625 45.675 48.6749L48.45 50.575L54.5125 41.7C54.7375 41.3624 55.2 41.275 55.5375 41.5125C55.7 41.625 55.8125 41.7874 55.85 41.9874C55.8875 42.1875 55.85 42.375 55.7375 42.5374L49.2625 52.025C49.125 52.225 48.9 52.3499 48.65 52.3499C48.5 52.3499 48.3625 52.2999 48.2375 52.2249L44.85 49.9124C44.6875 49.7874 44.575 49.625 44.5375 49.4249ZM59.425 36.1124V12.275C59.425 10.0125 57.5875 8.17495 55.325 8.17495H50.225V6.91245C50.225 5.38745 48.975 4.13745 47.45 4.13745C45.925 4.13745 44.675 5.37495 44.675 6.91245V8.17495H38.3875V6.91245C38.3875 5.38745 37.1375 4.13745 35.6125 4.13745C34.0875 4.13745 32.8375 5.37495 32.8375 6.91245V8.17495H26.55V6.91245C26.55 5.38745 25.3 4.13745 23.775 4.13745C22.25 4.13745 21 5.37495 21 6.91245V8.17495H14.7125V6.91245C14.7125 5.38745 13.475 4.13745 11.9375 4.13745C10.4 4.13745 9.1625 5.37495 9.1625 6.91245V8.17495H4.1C1.8375 8.17495 0 10.025 0 12.275V52.75C0 55.0125 1.8375 56.8499 4.1 56.8499H41.925C44.325 58.7874 47.35 59.8499 50.425 59.8499C57.9125 59.8499 64 53.7625 64 46.275C64 42.4 62.3375 38.7 59.425 36.1124ZM57.95 34.9749C55.725 33.4874 53.125 32.7 50.425 32.7C46.0875 32.7 42.0375 34.775 39.475 38.2625V34.6375C39.475 34.225 39.15 33.9 38.7375 33.9H32.925C32.5125 33.9 32.1875 34.225 32.1875 34.6375V40.45C32.1875 40.8624 32.5125 41.1875 32.925 41.1875H37.85C37.4625 42.15 37.1875 43.1499 37.025 44.1749H32.925C32.5125 44.1749 32.1875 44.5 32.1875 44.9124V50.7249C32.1875 51.1374 32.5125 51.4625 32.925 51.4625H37.875C38.4625 52.875 39.3125 54.2124 40.35 55.3624H4.1C2.65 55.3624 1.475 54.1875 1.475 52.7374V19.7125H57.9625L57.95 34.9749ZM37.3625 50H33.65V45.6624H36.8625C36.85 45.875 36.85 46.075 36.85 46.275C36.8375 47.5375 37.0125 48.7874 37.3625 50ZM33.65 39.7249V35.375H37.9875V39.7125L33.65 39.7249ZM50.425 34.1749C57.1 34.1749 62.525 39.6 62.525 46.275C62.525 52.95 57.1 58.375 50.425 58.375C43.75 58.375 38.325 52.95 38.325 46.275C38.3125 39.6 43.75 34.1749 50.425 34.1749ZM4.1 9.64995H9.1875V10.9125C9.1875 12.4375 10.425 13.6875 11.9625 13.6875C13.5 13.6875 14.7375 12.45 14.7375 10.9125V9.64995H21.025V10.9125C21.025 12.4375 22.275 13.6875 23.8 13.6875C25.325 13.6875 26.575 12.45 26.575 10.9125V9.64995H32.8625V10.9125C32.8625 12.4375 34.1125 13.6875 35.6375 13.6875C37.1625 13.6875 38.4125 12.45 38.4125 10.9125V9.64995H44.7V10.9125C44.7 12.4375 45.95 13.6875 47.475 13.6875C49 13.6875 50.25 12.45 50.25 10.9125V9.64995H55.35C56.8 9.64995 57.975 10.825 57.975 12.275V18.2375H1.475V12.275C1.475 10.8375 2.65 9.64995 4.1 9.64995ZM48.75 10.9125C48.75 11.625 48.175 12.2125 47.45 12.2125C46.725 12.2125 46.15 11.6375 46.15 10.9125V6.91245C46.15 6.19995 46.725 5.61245 47.45 5.61245C48.175 5.61245 48.75 6.19995 48.75 6.91245V10.9125ZM36.925 10.9125C36.925 11.625 36.35 12.2125 35.625 12.2125C34.9 12.2125 34.325 11.6375 34.325 10.9125V6.91245C34.325 6.19995 34.9 5.61245 35.625 5.61245C36.35 5.61245 36.925 6.18745 36.925 6.91245V10.9125ZM25.0875 10.9125C25.0875 11.625 24.5125 12.2125 23.7875 12.2125C23.0625 12.2125 22.5 11.6375 22.5 10.9125V6.91245C22.5 6.19995 23.075 5.61245 23.8 5.61245C24.525 5.61245 25.1 6.18745 25.1 6.91245L25.0875 10.9125ZM13.2625 10.9125C13.2625 11.625 12.6875 12.2125 11.9625 12.2125C11.2375 12.2125 10.6625 11.6375 10.6625 10.9125V6.91245C10.675 6.19995 11.25 5.62495 11.9625 5.62495C12.675 5.62495 13.2625 6.19995 13.2625 6.92495V10.9125ZM45.125 30.9125H50.9375C51.35 30.9125 51.675 30.5875 51.675 30.1749V24.3624C51.675 23.9499 51.3375 23.625 50.9375 23.625H45.125C44.7125 23.625 44.3875 23.9499 44.3875 24.3624V30.1749C44.3875 30.5749 44.7125 30.9125 45.125 30.9125ZM45.8625 29.4375V25.1H50.2V29.4375H45.8625ZM8.4875 41.2H14.3C14.7125 41.2 15.0375 40.8625 15.0375 40.4625V34.65C15.0375 34.2375 14.7125 33.9124 14.3 33.9124H8.4875C8.075 33.9124 7.75 34.25 7.75 34.65V40.4625C7.7375 40.8625 8.075 41.2 8.4875 41.2ZM13.5625 35.375V39.7125H9.225V35.375H13.5625ZM20.7 41.2H26.5125C26.925 41.2 27.25 40.8625 27.25 40.4625V34.65C27.25 34.2375 26.925 33.9124 26.5125 33.9124H20.7C20.2875 33.9124 19.9625 34.25 19.9625 34.65V40.4625C19.9625 40.8625 20.2875 41.2 20.7 41.2ZM21.4375 39.7249V35.375H25.775V39.7125L21.4375 39.7249ZM8.4875 30.9125H14.3C14.7125 30.9125 15.0375 30.5875 15.0375 30.1749V24.3624C15.0375 23.9499 14.7125 23.625 14.3 23.625H8.4875C8.075 23.625 7.75 23.9499 7.75 24.3624V30.1749C7.7375 30.5749 8.075 30.9125 8.4875 30.9125ZM13.5625 25.1V29.4375H9.225V25.1H13.5625ZM32.9125 30.9125H38.725C39.1375 30.9125 39.4625 30.5875 39.4625 30.1749V24.3624C39.4625 23.9499 39.1375 23.625 38.725 23.625H32.9125C32.5 23.625 32.175 23.9499 32.175 24.3624V30.1749C32.175 30.5749 32.5 30.9125 32.9125 30.9125ZM33.65 29.4375V25.1H37.9875V29.4375H33.65ZM8.4875 51.4749H14.3C14.7125 51.4749 15.0375 51.1375 15.0375 50.7374V44.9249C15.0375 44.5125 14.7125 44.1875 14.3 44.1875H8.4875C8.075 44.1875 7.75 44.5125 7.75 44.9249V50.7374C7.7375 51.1499 8.075 51.4749 8.4875 51.4749ZM13.5625 45.6624V50H9.225V45.6624H13.5625ZM20.7 30.9125H26.5125C26.925 30.9125 27.25 30.5875 27.25 30.1749V24.3624C27.25 23.9499 26.925 23.625 26.5125 23.625H20.7C20.2875 23.625 19.9625 23.9499 19.9625 24.3624V30.1749C19.9625 30.5749 20.2875 30.9125 20.7 30.9125ZM21.4375 29.4375V25.1H25.775V29.4375H21.4375Z" fill="#E6F0F8"/>
<path d="M20.7 51.4749H26.5125C26.925 51.4749 27.25 51.1375 27.25 50.7374V44.9249C27.25 44.5125 26.925 44.1875 26.5125 44.1875H20.7C20.2875 44.1875 19.9625 44.5125 19.9625 44.9249V50.7374C19.9625 51.1499 20.2875 51.4749 20.7 51.4749ZM21.4375 50V45.6624H25.775V50H21.4375ZM44.5375 49.4249C44.5 49.2374 44.5375 49.0374 44.65 48.875C44.7625 48.7125 44.925 48.5999 45.125 48.5625C45.3125 48.525 45.5125 48.5625 45.675 48.6749L48.45 50.575L54.5125 41.7C54.7375 41.3624 55.2 41.275 55.5375 41.5125C55.7 41.625 55.8125 41.7874 55.85 41.9874C55.8875 42.1875 55.85 42.375 55.7375 42.5374L49.2625 52.025C49.125 52.225 48.9 52.3499 48.65 52.3499C48.5 52.3499 48.3625 52.2999 48.2375 52.2249L44.85 49.9124C44.6875 49.7874 44.575 49.625 44.5375 49.4249ZM59.425 36.1124V12.275C59.425 10.0125 57.5875 8.17495 55.325 8.17495H50.225V6.91245C50.225 5.38745 48.975 4.13745 47.45 4.13745C45.925 4.13745 44.675 5.37495 44.675 6.91245V8.17495H38.3875V6.91245C38.3875 5.38745 37.1375 4.13745 35.6125 4.13745C34.0875 4.13745 32.8375 5.37495 32.8375 6.91245V8.17495H26.55V6.91245C26.55 5.38745 25.3 4.13745 23.775 4.13745C22.25 4.13745 21 5.37495 21 6.91245V8.17495H14.7125V6.91245C14.7125 5.38745 13.475 4.13745 11.9375 4.13745C10.4 4.13745 9.1625 5.37495 9.1625 6.91245V8.17495H4.1C1.8375 8.17495 0 10.025 0 12.275V52.75C0 55.0125 1.8375 56.8499 4.1 56.8499H41.925C44.325 58.7874 47.35 59.8499 50.425 59.8499C57.9125 59.8499 64 53.7625 64 46.275C64 42.4 62.3375 38.7 59.425 36.1124ZM57.95 34.9749C55.725 33.4874 53.125 32.7 50.425 32.7C46.0875 32.7 42.0375 34.775 39.475 38.2625V34.6375C39.475 34.225 39.15 33.9 38.7375 33.9H32.925C32.5125 33.9 32.1875 34.225 32.1875 34.6375V40.45C32.1875 40.8624 32.5125 41.1875 32.925 41.1875H37.85C37.4625 42.15 37.1875 43.1499 37.025 44.1749H32.925C32.5125 44.1749 32.1875 44.5 32.1875 44.9124V50.7249C32.1875 51.1374 32.5125 51.4625 32.925 51.4625H37.875C38.4625 52.875 39.3125 54.2124 40.35 55.3624H4.1C2.65 55.3624 1.475 54.1875 1.475 52.7374V19.7125H57.9625L57.95 34.9749ZM37.3625 50H33.65V45.6624H36.8625C36.85 45.875 36.85 46.075 36.85 46.275C36.8375 47.5375 37.0125 48.7874 37.3625 50ZM33.65 39.7249V35.375H37.9875V39.7125L33.65 39.7249ZM50.425 34.1749C57.1 34.1749 62.525 39.6 62.525 46.275C62.525 52.95 57.1 58.375 50.425 58.375C43.75 58.375 38.325 52.95 38.325 46.275C38.3125 39.6 43.75 34.1749 50.425 34.1749ZM4.1 9.64995H9.1875V10.9125C9.1875 12.4375 10.425 13.6875 11.9625 13.6875C13.5 13.6875 14.7375 12.45 14.7375 10.9125V9.64995H21.025V10.9125C21.025 12.4375 22.275 13.6875 23.8 13.6875C25.325 13.6875 26.575 12.45 26.575 10.9125V9.64995H32.8625V10.9125C32.8625 12.4375 34.1125 13.6875 35.6375 13.6875C37.1625 13.6875 38.4125 12.45 38.4125 10.9125V9.64995H44.7V10.9125C44.7 12.4375 45.95 13.6875 47.475 13.6875C49 13.6875 50.25 12.45 50.25 10.9125V9.64995H55.35C56.8 9.64995 57.975 10.825 57.975 12.275V18.2375H1.475V12.275C1.475 10.8375 2.65 9.64995 4.1 9.64995ZM48.75 10.9125C48.75 11.625 48.175 12.2125 47.45 12.2125C46.725 12.2125 46.15 11.6375 46.15 10.9125V6.91245C46.15 6.19995 46.725 5.61245 47.45 5.61245C48.175 5.61245 48.75 6.19995 48.75 6.91245V10.9125ZM36.925 10.9125C36.925 11.625 36.35 12.2125 35.625 12.2125C34.9 12.2125 34.325 11.6375 34.325 10.9125V6.91245C34.325 6.19995 34.9 5.61245 35.625 5.61245C36.35 5.61245 36.925 6.18745 36.925 6.91245V10.9125ZM25.0875 10.9125C25.0875 11.625 24.5125 12.2125 23.7875 12.2125C23.0625 12.2125 22.5 11.6375 22.5 10.9125V6.91245C22.5 6.19995 23.075 5.61245 23.8 5.61245C24.525 5.61245 25.1 6.18745 25.1 6.91245L25.0875 10.9125ZM13.2625 10.9125C13.2625 11.625 12.6875 12.2125 11.9625 12.2125C11.2375 12.2125 10.6625 11.6375 10.6625 10.9125V6.91245C10.675 6.19995 11.25 5.62495 11.9625 5.62495C12.675 5.62495 13.2625 6.19995 13.2625 6.92495V10.9125ZM45.125 30.9125H50.9375C51.35 30.9125 51.675 30.5875 51.675 30.1749V24.3624C51.675 23.9499 51.3375 23.625 50.9375 23.625H45.125C44.7125 23.625 44.3875 23.9499 44.3875 24.3624V30.1749C44.3875 30.5749 44.7125 30.9125 45.125 30.9125ZM45.8625 29.4375V25.1H50.2V29.4375H45.8625ZM8.4875 41.2H14.3C14.7125 41.2 15.0375 40.8625 15.0375 40.4625V34.65C15.0375 34.2375 14.7125 33.9124 14.3 33.9124H8.4875C8.075 33.9124 7.75 34.25 7.75 34.65V40.4625C7.7375 40.8625 8.075 41.2 8.4875 41.2ZM13.5625 35.375V39.7125H9.225V35.375H13.5625ZM20.7 41.2H26.5125C26.925 41.2 27.25 40.8625 27.25 40.4625V34.65C27.25 34.2375 26.925 33.9124 26.5125 33.9124H20.7C20.2875 33.9124 19.9625 34.25 19.9625 34.65V40.4625C19.9625 40.8625 20.2875 41.2 20.7 41.2ZM21.4375 39.7249V35.375H25.775V39.7125L21.4375 39.7249ZM8.4875 30.9125H14.3C14.7125 30.9125 15.0375 30.5875 15.0375 30.1749V24.3624C15.0375 23.9499 14.7125 23.625 14.3 23.625H8.4875C8.075 23.625 7.75 23.9499 7.75 24.3624V30.1749C7.7375 30.5749 8.075 30.9125 8.4875 30.9125ZM13.5625 25.1V29.4375H9.225V25.1H13.5625ZM32.9125 30.9125H38.725C39.1375 30.9125 39.4625 30.5875 39.4625 30.1749V24.3624C39.4625 23.9499 39.1375 23.625 38.725 23.625H32.9125C32.5 23.625 32.175 23.9499 32.175 24.3624V30.1749C32.175 30.5749 32.5 30.9125 32.9125 30.9125ZM33.65 29.4375V25.1H37.9875V29.4375H33.65ZM8.4875 51.4749H14.3C14.7125 51.4749 15.0375 51.1375 15.0375 50.7374V44.9249C15.0375 44.5125 14.7125 44.1875 14.3 44.1875H8.4875C8.075 44.1875 7.75 44.5125 7.75 44.9249V50.7374C7.7375 51.1499 8.075 51.4749 8.4875 51.4749ZM13.5625 45.6624V50H9.225V45.6624H13.5625ZM20.7 30.9125H26.5125C26.925 30.9125 27.25 30.5875 27.25 30.1749V24.3624C27.25 23.9499 26.925 23.625 26.5125 23.625H20.7C20.2875 23.625 19.9625 23.9499 19.9625 24.3624V30.1749C19.9625 30.5749 20.2875 30.9125 20.7 30.9125ZM21.4375 29.4375V25.1H25.775V29.4375H21.4375Z" stroke="#E6F0F8" stroke-width="0.6" mask="url(#path-1-outside-1_1_451)"/>
</g>
<defs>
<clipPath id="clip0_1_451">
<rect width="64" height="64" fill="white"/>
</clipPath>
</defs>
</svg>
