<svg width="64" height="64" viewBox="0 0 64 64" fill="none" xmlns="http://www.w3.org/2000/svg">
<path d="M39.6528 41.5333C37.1297 45.9093 33.9137 50.1181 33.1376 55.2403C32.9329 56.5905 32.9873 57.9551 32.9903 59.3173L32.9924 60.4705C32.9928 61.2349 32.6709 61.9919 31.7239 61.6936C31.0596 61.4845 31.0106 60.843 31.0089 60.2591L31.0074 59.0833C31.0063 57.4501 31.1178 55.8565 30.7831 54.2498C30.2303 51.5971 28.8773 49.075 27.5333 46.7498L23.1361 39.3766C22.8978 38.924 22.6957 38.4334 22.4012 38.0141C19.7919 41.4596 19.0626 43.3734 19.0624 47.6034L19.0657 50.3634C19.1777 50.4505 19.3946 50.4413 19.5341 50.4918C21.0724 51.0495 22.2261 52.437 22.5893 54.0195C23.4644 57.8318 18.9373 60.9434 15.5456 58.7691C13.3902 57.3876 12.7603 54.5395 14.1544 52.3845C14.7044 51.5343 15.7392 50.6839 16.7574 50.477C17.0728 50.413 17.0881 50.455 17.0877 50.135L17.0846 47.487C17.0806 43.0179 18.2051 39.7019 21.3354 36.4505C20.8337 36.4731 20.3351 36.5866 19.8427 36.6799C16.6987 37.2748 12.5497 38.4964 10.1691 40.6935C8.49879 42.235 7.49359 44.3484 6.6494 46.422C4.94069 50.619 4.10923 55.1055 4.09863 59.6273C4.09764 60.049 4.13633 60.5071 4.08185 60.9226C3.94106 61.9966 2.41841 61.9498 2.18491 60.9216C2.1306 60.6825 2.1568 60.4045 2.1561 60.159L2.15499 58.6971C2.16024 54.3411 3.1413 49.8526 4.76516 45.8134C6.96764 40.335 9.31811 37.8245 14.9203 35.955L17.5569 35.1854C16.3453 34.604 13.3609 32.0216 13.4161 30.6433C13.4922 28.7363 17.2361 30.5404 16.6644 24.0645L16.4386 22.1073L16.3303 18.8433C16.3319 17.8619 16.4318 16.9121 16.5698 15.9414C17.4784 9.55332 20.8259 3.60563 27.6089 2.21879C28.3156 2.07433 29.0492 1.95954 29.7721 1.96103C31.6814 1.87955 33.604 2.30749 35.3422 3.0822L36.2194 3.5125C36.7961 3.82895 36.5713 3.81858 37.2134 3.74686C40.3849 3.39259 43.3899 5.30164 45.0499 7.89557C47.3872 11.5474 47.9265 16.9454 47.6659 21.2613C47.5303 23.5059 46.4109 28.9765 49.2604 29.9874C50.2459 30.3369 50.8238 30.4656 50.1954 31.773C49.2921 33.6528 47.9962 34.0185 46.6556 35.1785C46.6654 35.1858 48.5283 35.7148 48.7539 35.7884C53.4954 37.3354 56.0217 39.1518 58.2203 43.5248C60.0143 47.0928 61.0792 51.0639 61.5974 55.014L61.8576 57.3748C61.9122 58.2613 61.9469 60.0005 61.8602 60.8511C61.7542 61.8908 59.9443 62.243 59.9357 60.452L59.9213 57.9695C59.6714 52.6631 57.4814 43.5984 53.4617 40.3043C50.8145 38.1349 46.0092 36.8446 42.6969 36.2894C45.1977 38.8068 46.6921 41.3841 46.9445 45.0468C47.0234 46.1908 46.968 47.3704 46.9675 48.5183L47.3759 48.5689C47.6856 48.6116 48.023 48.745 48.3082 48.8693C51.8157 50.3974 52.8251 54.6991 53.0332 58.1658C53.0657 58.7076 53.1226 59.3135 53.0454 59.853L53.0372 59.906C52.7535 61.8286 51.1067 61.7551 49.6593 61.7471C49.3667 61.7455 49.0171 61.7774 48.7351 61.7079C47.8703 61.4946 47.6339 60.0604 48.6193 59.8074C49.2396 59.648 50.3513 59.8548 51.0999 59.7455C51.1632 59.3649 51.1216 58.9544 51.1047 58.5696C50.9902 55.9546 50.3497 52.0666 47.7117 50.7528C46.8743 50.3358 45.5331 50.2234 44.6325 50.474C41.7064 51.2881 40.7455 54.4029 40.2129 57.0623C40.0942 57.6553 39.9805 58.2631 39.9433 58.8673C39.8963 59.6289 39.7479 59.7778 40.4939 59.7794C40.9918 59.7804 41.5474 59.7279 42.0389 59.7938C43.0683 59.9315 43.216 61.5298 42.1179 61.741C41.3789 61.8831 39.5238 61.7659 38.9353 61.3789C37.6969 60.5645 37.9114 59.2506 38.0927 57.9841C38.5859 54.539 39.7349 50.224 43.3557 48.8264C43.8685 48.6285 44.3884 48.5254 44.9266 48.4255L44.9423 46.6854C44.9428 46.094 44.9631 45.4911 44.9151 44.9014C44.7053 42.3286 43.4093 39.8275 41.6562 37.9476L39.6528 41.5333ZM24.1303 37.0003C24.4047 37.6894 24.8018 38.3469 25.1803 38.9833L26.5446 41.2513C28.5549 44.5946 30.6363 47.8555 32.0654 51.5048C32.2091 51.1894 32.3033 50.8574 32.4206 50.532L32.9721 49.1771C33.8222 47.2884 34.8809 45.4964 35.972 43.739L40.0652 36.8571C39.6317 37.2576 39.2214 37.6704 38.7649 38.0466C34.4241 41.6246 29.7013 41.492 25.2841 38.0183L24.5749 37.4176C24.4443 37.2966 24.2799 37.0868 24.1303 37.0003ZM30.0082 3.92543C27.3532 3.93145 24.5211 5.04778 22.6361 6.9227C19.3198 10.2212 17.9354 16.4215 18.3218 21.0414C18.6014 24.3869 19.4399 28.3735 16.4249 30.7998C16.2903 30.908 15.9622 31.0894 15.8874 31.2245C17.1589 33.2221 20.1548 34.4778 22.5007 34.05L23.2751 33.8933C23.7132 33.8128 23.6551 33.8981 23.9913 34.2285C26.7647 36.9541 29.7467 39.5788 33.8632 38.4891C36.0224 37.881 37.5959 36.5591 39.1754 35.048C39.6387 34.6049 40.1462 34.0225 40.7429 33.7681C41.3643 34.1364 41.9227 34.1331 42.6231 34.1066C44.7538 34.0261 46.4928 32.9965 48.0414 31.5696C46.7824 30.8125 45.889 29.3923 45.5393 27.9881C44.9699 25.7025 45.5613 23.5175 45.6934 21.2331L45.7184 19.215C45.7191 15.7558 45.3318 12.0883 43.4538 9.0907C42.1675 7.03773 40.0461 5.56278 37.5352 5.7261C36.7806 5.77518 36.5391 5.87794 35.8643 5.50797C33.9604 4.46388 32.1587 3.94153 30.0082 3.92543ZM17.7154 52.3225C14.2467 52.8463 14.9337 57.8068 18.3834 57.4659C21.7107 56.9274 21.2363 51.9571 17.7154 52.3225Z" fill="#E6F0F8"/>
<path d="M29.6699 36.377C25.7376 34.999 22.4959 31.187 20.7426 27.5161C20.3144 26.6195 18.5009 22.0611 19.7327 21.333C19.93 21.2162 20.1835 21.1888 20.4065 21.1505L22.5815 20.6586C26.3652 19.544 32.1562 16.0707 34.4856 12.6588C34.8772 12.0853 35.2274 11.472 35.5346 10.849C35.859 10.1913 35.884 9.52038 36.7311 9.41699C39.0217 9.5454 36.5426 13.1788 35.9364 13.928C37.6362 16.0556 39.9579 17.8493 42.5384 18.7681C43.157 18.9885 44.5167 19.0893 44.8474 19.7045C44.9467 19.8891 44.9276 20.2656 44.9314 20.4743C45.021 25.4037 42.1207 30.6065 38.5101 33.7733C35.9816 35.991 33.0135 37.4802 29.6699 36.377ZM34.7319 15.469C31.59 18.5967 25.8619 22.3421 21.2941 22.977C22.2861 27.6041 25.5426 32.6195 30.0237 34.3958C32.4664 35.3996 34.7989 34.2706 36.7276 32.6962C39.3726 30.5373 41.3055 27.6398 42.3276 24.3872C42.5094 23.809 43.1101 21.5548 42.9572 20.9532C40.0786 20.1483 37.5185 18.4923 35.4536 16.3402C35.1884 16.0638 34.9846 15.7477 34.7319 15.469Z" fill="#E6F0F8"/>
</svg>
