<svg width="64" height="64" viewBox="0 0 64 64" fill="none" xmlns="http://www.w3.org/2000/svg">
<path d="M44.0012 27.5029C43.6231 29.1507 42.4695 31.1041 40.9184 32.9134C38.9795 35.1752 36.4217 36.8375 34.0641 36.8424C31.7065 36.8424 29.1478 35.1839 27.2186 32.9279C25.6723 31.1205 24.5438 29.1652 24.1724 27.5193C25.2507 27.7707 26.7205 28.0841 28.0541 28.2243C30.2047 28.4515 32.4666 28.5463 34.068 28.5463C35.6761 28.5463 37.9409 28.4457 40.0973 28.2194C41.427 28.0783 42.923 27.7611 44.0012 27.5029ZM45.063 25.1559C44.9267 25.1608 44.7913 25.1907 44.6646 25.2565C43.9239 25.6046 41.9444 25.9963 39.8798 26.2187C37.8161 26.4353 35.5891 26.5359 34.067 26.5407C32.5526 26.5407 30.3256 26.4401 28.261 26.2235C26.1954 26.0069 24.2208 25.6182 23.4859 25.2662C22.8167 24.9548 22.0508 25.4383 22.0508 26.1732C22.046 28.6962 23.5168 31.6978 25.6868 34.2363C27.8626 36.7699 30.8091 38.8548 34.0641 38.8548C37.3172 38.8499 40.2685 36.7592 42.4453 34.2208C44.6201 31.6785 46.0968 28.6807 46.1016 26.1626C46.1016 25.595 45.6326 25.1356 45.063 25.1559Z" fill="#E6F0F8"/>
<path d="M54.5574 45.3538C55.1018 46.7144 57.0852 48.4966 58.3143 49.1764C56.4199 50.2285 55.1057 51.9363 54.5574 52.9633C53.6851 51.1356 51.5712 49.5091 50.7444 49.1764C51.7772 48.7384 53.9278 46.9503 54.5574 45.3538ZM54.5728 41.7129C54.1048 41.7081 53.6861 42.0253 53.5662 42.4788C52.8196 45.2638 50.6545 47.4387 47.8695 48.1843C46.856 48.456 46.856 49.893 47.8695 50.1647C50.6535 50.9103 52.8187 53.0793 53.5662 55.8653C53.8418 56.8787 55.2788 56.8787 55.5505 55.8653C56.2961 53.0803 58.4719 50.9103 61.2559 50.1647C62.2694 49.893 62.2694 48.456 61.2559 48.1843C58.4719 47.4387 56.2961 45.2638 55.5505 42.4788C55.4335 42.035 55.0361 41.7226 54.5728 41.7129Z" fill="#E6F0F8"/>
<path d="M9.29739 14.3176C9.83118 15.6473 11.7749 17.3947 12.9788 18.059C11.1251 19.0976 9.83602 20.7638 9.29739 21.7704C8.44544 19.9815 6.37118 18.3859 5.56468 18.059C6.57232 17.6306 8.68333 15.8842 9.29739 14.3176ZM9.31189 10.7512C8.85352 10.7406 8.44544 11.0539 8.33037 11.4958C7.59446 14.2267 5.47475 16.3571 2.74485 17.0872C1.75172 17.3541 1.75172 18.764 2.74485 19.0318C5.47475 19.761 7.59446 21.8826 8.33037 24.6125C8.59243 25.6057 10.0014 25.6057 10.2683 24.6125C10.9993 21.8826 13.1297 19.7619 15.8596 19.0318C16.8518 18.7649 16.8518 17.355 15.8596 17.0872C13.1307 16.358 10.9993 14.2267 10.2683 11.4958C10.1542 11.0626 9.76542 10.7561 9.31189 10.7512Z" fill="#E6F0F8"/>
<path d="M21.2003 0.689453C16.3149 0.689453 12.2911 3.80616 9.89772 8.20901C9.61632 8.69639 9.79231 9.32205 10.2913 9.59475C10.7854 9.86165 11.4034 9.67502 11.6616 9.1712C13.7968 5.24219 17.1659 2.70376 21.2003 2.70376C25.0587 2.70376 27.3902 3.92801 30.035 5.42302C32.6837 6.91997 35.6157 8.68769 40.1974 9.35687C40.7621 9.47775 41.3162 9.0948 41.3965 8.52136C41.4816 7.94598 41.0639 7.42282 40.4894 7.37254C38.4655 7.07566 36.8225 6.55637 35.3613 5.93264C36.8776 5.56034 38.2324 4.9898 39.5717 4.4473C41.8027 3.5441 44.0345 2.70376 47.2876 2.70376C51.8974 2.70376 55.6601 6.03805 57.6492 10.9186C59.6394 15.804 59.7399 22.1399 56.953 27.7109C54.5267 32.5809 53.1555 34.4395 52.3345 39.3394C52.173 40.6187 54.0568 40.935 54.3208 39.672C55.0953 35.0381 56.279 33.5634 58.7574 28.6122C61.82 22.4774 61.7194 15.5874 59.5127 10.1624C57.3011 4.74321 52.8702 0.689453 47.2876 0.689453C43.6777 0.689453 41.0784 1.66518 38.8165 2.58288C36.5807 3.48898 34.6912 4.31095 32.1924 4.33126C31.8066 4.10981 31.4178 3.8932 31.03 3.67562C28.3427 2.15933 25.5016 0.689453 21.2003 0.689453Z" fill="#E6F0F8"/>
<path d="M10.5475 27.1463C9.83383 27.2014 9.40544 27.9721 9.73712 28.6123C12.2098 33.5634 13.3886 35.0381 14.1651 39.6779C15.254 46.2246 14.7492 50.3499 18.7033 58.1016C20.6219 61.8643 23.4621 63.5459 26.0063 63.2694C28.5486 62.9928 30.5029 60.6855 30.5029 57.6423V50.5666C30.5029 48.6325 30.8656 47.2371 31.4497 46.4064C32.0386 45.5748 32.8151 45.1628 34.2395 45.1628C35.6707 45.1628 36.4511 45.5748 37.04 46.4064C37.6289 47.2371 37.9829 48.6325 37.9829 50.5666V57.6423C37.9829 60.6855 39.9469 62.9928 42.4853 63.2694C45.0276 63.5469 47.8648 61.8643 49.7834 58.1016C50.207 57.27 50.5841 56.4847 50.9119 55.7285C51.1692 55.215 50.938 54.5903 50.413 54.3592C49.884 54.1329 49.2699 54.3892 49.0678 54.9278C48.7564 55.6434 48.3986 56.389 47.9896 57.1839C46.3176 60.4631 44.2134 61.4349 42.7019 61.2686C41.1905 61.1023 39.9972 59.8838 39.9972 57.6423V50.5666C39.9972 48.3966 39.6394 46.5931 38.684 45.2431C37.7256 43.8931 36.1349 43.1524 34.2405 43.1524C32.3519 43.1524 30.766 43.8922 29.8086 45.2431C28.8571 46.5931 28.4944 48.3966 28.4944 50.5666V57.6423C28.4944 59.8848 27.2963 61.1032 25.7848 61.2686C24.2734 61.4359 22.1682 60.4631 20.4962 57.1839C16.7045 49.7494 17.278 46.1134 16.1494 39.3394C15.3275 34.4386 13.9698 32.5809 11.5358 27.711C11.353 27.3368 10.9614 27.1163 10.5475 27.1463Z" fill="#E6F0F8"/>
<path d="M37.8582 20.654C37.0468 20.6743 36.5537 19.7769 36.9966 19.098C38.1541 17.2588 40.2438 16.165 42.4873 16.165C44.7327 16.1612 46.8225 17.2491 47.9771 19.0864C48.303 19.5545 48.1734 20.2043 47.6841 20.5128C47.2006 20.8203 46.5556 20.6588 46.2742 20.1598C45.518 18.951 44.0732 18.1707 42.4873 18.1707C40.8995 18.1707 39.4547 18.9559 38.6937 20.1656C38.5187 20.4615 38.2015 20.6433 37.8582 20.654Z" fill="#E6F0F8"/>
<path d="M30.6196 20.6597C31.431 20.6839 31.9338 19.7826 31.49 19.1038C30.3373 17.2655 28.2466 16.1776 26.0011 16.1824C23.7586 16.1824 21.6689 17.2761 20.5104 19.1144C20.1835 19.5824 20.3141 20.2323 20.7976 20.5388C21.2811 20.8405 21.9261 20.679 22.2075 20.182C22.9676 18.9732 24.4133 18.187 26.0002 18.187C27.5861 18.187 29.0318 18.9674 29.787 20.1762C29.964 20.4673 30.2773 20.6491 30.6196 20.6597Z" fill="#E6F0F8"/>
</svg>
