<svg width="32" height="33" viewBox="0 0 32 33" fill="none" xmlns="http://www.w3.org/2000/svg">
<path d="M28.6108 3.77352C28.4559 3.63973 28.2674 3.55075 28.0656 3.51617C27.8638 3.48159 27.6565 3.50271 27.4658 3.57727L2.1333 13.491C1.77429 13.6306 1.47033 13.8831 1.26721 14.2104C1.06409 14.5377 0.972783 14.9221 1.00705 15.3058C1.04131 15.6895 1.19929 16.0516 1.4572 16.3378C1.7151 16.6239 2.05898 16.8185 2.43705 16.8923L9.0008 18.181V25.4998C8.99951 25.8984 9.11798 26.2883 9.34086 26.6188C9.56373 26.9493 9.88074 27.2053 10.2508 27.3535C10.6203 27.5044 11.0266 27.5406 11.417 27.4575C11.8073 27.3743 12.1636 27.1756 12.4396 26.8873L15.6046 23.6048L20.6258 27.9998C20.9881 28.3211 21.4553 28.4989 21.9396 28.4998C22.1518 28.4996 22.3626 28.4663 22.5646 28.401C22.8945 28.2963 23.1912 28.107 23.4252 27.852C23.6593 27.5969 23.8224 27.285 23.8983 26.9473L28.9721 4.87477C29.0174 4.67571 29.0078 4.46805 28.9442 4.27405C28.8805 4.08005 28.7653 3.90702 28.6108 3.77352ZM20.9683 8.27352L9.76955 16.2935L3.56955 15.0773L20.9683 8.27352ZM11.0008 25.4998V19.5648L14.0996 22.2823L11.0008 25.4998ZM21.9421 26.4998L11.6071 17.4373L26.4821 6.77602L21.9421 26.4998Z" fill="#026994"/>
</svg>
