<svg width="32" height="33" viewBox="0 0 32 33" fill="none" xmlns="http://www.w3.org/2000/svg">
<path fill-rule="evenodd" clip-rule="evenodd" d="M31.2054 22.9865C30.4799 21.5258 29.5242 20.1914 28.3747 19.0345C27.9897 18.6005 27.5871 18.1824 27.168 17.7812L27.1174 17.7318C26.9616 17.5809 26.8078 17.428 26.656 17.2732C28.2277 15.0876 29.5724 12.7475 30.6694 10.2892L30.7134 10.1905L30.744 10.0865C30.8894 9.60249 31.0547 8.68249 30.468 7.85049C29.86 6.99182 28.888 6.83716 28.236 6.83716H25.24C24.6126 6.80816 23.9922 6.97857 23.4676 7.32398C22.943 7.66938 22.5413 8.17202 22.32 8.75982C21.6753 10.2954 20.868 11.7575 19.912 13.1212V9.61049C19.912 9.15716 19.8694 8.39716 19.3827 7.75716C18.8014 6.98916 17.96 6.83716 17.376 6.83716H12.6214C12.0009 6.82288 11.3988 7.04777 10.9396 7.46526C10.4804 7.88274 10.1994 8.46084 10.1547 9.07982L10.1507 9.13982V9.19982C10.1507 9.84649 10.4067 10.3238 10.612 10.6238C10.704 10.7585 10.8014 10.8812 10.864 10.9585L10.8774 10.9758C10.944 11.0585 10.988 11.1132 11.032 11.1745C11.1494 11.3318 11.316 11.5772 11.364 12.2092V14.1732C10.4097 12.5748 9.62715 10.8801 9.02936 9.11716L9.0187 9.08782L9.00803 9.05982C8.84536 8.63449 8.58536 8.01582 8.06403 7.54382C7.45603 6.99049 6.73603 6.83716 6.08136 6.83716H3.04136C2.3787 6.83716 1.58003 6.99182 0.984031 7.61982C0.398698 8.23849 0.332031 8.97982 0.332031 9.37182V9.55049L0.369365 9.72382C1.20972 13.632 2.94444 17.2922 5.43736 20.4172C6.57645 22.2136 8.12298 23.7163 9.95148 24.8033C11.78 25.8902 13.839 26.5308 15.9614 26.6732L16.016 26.6772H16.072C17.04 26.6772 18.0494 26.5932 18.808 26.0878C19.8307 25.4052 19.912 24.3585 19.912 23.8358V22.3185C20.1747 22.5318 20.5 22.8172 20.8987 23.2012C21.3814 23.6838 21.7654 24.1025 22.0947 24.4678L22.2707 24.6625C22.5267 24.9478 22.7787 25.2292 23.008 25.4598C23.296 25.7492 23.652 26.0678 24.0974 26.3038C24.5814 26.5585 25.0894 26.6745 25.628 26.6745H28.6694C29.3107 26.6745 30.2294 26.5225 30.876 25.7732C31.58 24.9572 31.5267 23.9558 31.3054 23.2372L31.2654 23.1078L31.2054 22.9865ZM23.5787 23.1278C23.1655 22.6658 22.74 22.215 22.3027 21.7758L22.2987 21.7718C20.4894 20.0278 19.6454 19.7252 19.048 19.7252C18.7294 19.7252 18.3787 19.7598 18.1507 20.0452C18.0493 20.182 17.9821 20.3411 17.9547 20.5092C17.9229 20.7048 17.9086 20.9029 17.912 21.1012V23.8358C17.912 24.1758 17.856 24.3185 17.6987 24.4225C17.4894 24.5625 17.0427 24.6758 16.084 24.6758C14.263 24.5519 12.4973 23.9976 10.9323 23.0583C9.3672 22.1191 8.04739 20.8218 7.08136 19.2732L7.0707 19.2558L7.05736 19.2398C4.73494 16.3515 3.1171 12.962 2.33203 9.33982C2.33736 9.16649 2.3747 9.06116 2.43603 8.99716C2.4987 8.93049 2.65203 8.83716 3.04136 8.83716H6.08136C6.4187 8.83716 6.5947 8.91182 6.72136 9.02516C6.8627 9.15582 6.98803 9.37582 7.13736 9.76782C7.88403 11.9625 8.89203 14.0158 9.84803 15.5252C10.3254 16.2785 10.7947 16.9065 11.2187 17.3505C11.4307 17.5718 11.6374 17.7558 11.836 17.8865C12.0267 18.0118 12.244 18.1118 12.468 18.1118C12.5854 18.1118 12.7227 18.0985 12.8547 18.0412C12.9974 17.9785 13.1149 17.8695 13.188 17.7318C13.3254 17.4812 13.364 17.1118 13.364 16.6278V12.1305C13.2934 11.0398 12.964 10.4252 12.644 9.98916C12.5791 9.90203 12.5124 9.81623 12.444 9.73182L12.4267 9.71049C12.3701 9.64122 12.3159 9.57007 12.264 9.49716C12.1991 9.41521 12.1597 9.31599 12.1507 9.21182C12.1612 9.10587 12.2117 9.00792 12.292 8.93803C12.3723 8.86813 12.4763 8.83157 12.5827 8.83582H17.376C17.6507 8.83582 17.7427 8.90249 17.7894 8.96516C17.856 9.05182 17.912 9.23182 17.912 9.61049V15.6478C17.912 16.3652 18.2427 16.8505 18.7227 16.8505C19.2747 16.8505 19.6734 16.5158 20.3694 15.8198L20.3814 15.8065L20.392 15.7945C21.9535 13.891 23.2291 11.77 24.1787 9.49849L24.184 9.48249C24.255 9.28155 24.39 9.10946 24.5682 8.99265C24.7465 8.87583 24.9581 8.82073 25.1707 8.83582H28.2374C28.6534 8.83582 28.7894 8.94249 28.8347 9.00516C28.8814 9.07182 28.9147 9.21449 28.8347 9.49449C27.7396 11.943 26.3857 14.2674 24.796 16.4278L24.7854 16.4438C24.632 16.6798 24.4627 16.9412 24.4387 17.2398C24.412 17.5625 24.5507 17.8545 24.7947 18.1692C24.972 18.4305 25.3387 18.7892 25.7107 19.1532L25.7454 19.1878C26.1347 19.5692 26.5574 19.9825 26.896 20.3825L26.9054 20.3918L26.9147 20.4025C27.9244 21.4099 28.7642 22.5744 29.4014 23.8505C29.5027 24.1972 29.4414 24.3758 29.3614 24.4678C29.2694 24.5745 29.0627 24.6745 28.6707 24.6745H25.628C25.4206 24.6801 25.2153 24.6319 25.032 24.5345C24.8077 24.4031 24.6037 24.2396 24.4267 24.0492C24.236 23.8585 24.0294 23.6278 23.776 23.3465L23.5787 23.1278Z" fill="#026994"/>
</svg>
