<svg width="32" height="33" viewBox="0 0 32 33" fill="none" xmlns="http://www.w3.org/2000/svg">
<path d="M25.3991 7.04658C24.1765 5.81205 22.7205 4.8332 21.1158 4.16706C19.5111 3.50092 17.7899 3.16082 16.0524 3.16658C8.77242 3.16658 2.83909 9.09991 2.83909 16.3799C2.83909 18.7132 3.45242 20.9799 4.59909 22.9799L2.73242 29.8332L9.73242 27.9932C11.6658 29.0466 13.8391 29.6066 16.0524 29.6066C23.3324 29.6066 29.2658 23.6732 29.2658 16.3932C29.2658 12.8599 27.8924 9.53991 25.3991 7.04658ZM16.0524 27.3666C14.0791 27.3666 12.1458 26.8332 10.4524 25.8332L10.0524 25.5932L5.89242 26.6866L6.99909 22.6332L6.73242 22.2199C5.63582 20.4693 5.05365 18.4456 5.05242 16.3799C5.05242 10.3266 9.98575 5.39324 16.0391 5.39324C18.9724 5.39324 21.7324 6.53991 23.7991 8.61991C24.8226 9.63839 25.6336 10.85 26.1853 12.1843C26.7369 13.5187 27.018 14.9494 27.0124 16.3932C27.0391 22.4466 22.1058 27.3666 16.0524 27.3666ZM22.0791 19.1532C21.7458 18.9932 20.1191 18.1932 19.8258 18.0732C19.5191 17.9666 19.3058 17.9132 19.0791 18.2332C18.8524 18.5666 18.2258 19.3132 18.0391 19.5266C17.8524 19.7532 17.6524 19.7799 17.3191 19.6066C16.9858 19.4466 15.9191 19.0866 14.6658 17.9666C13.6791 17.0866 13.0258 16.0066 12.8258 15.6732C12.6391 15.3399 12.7991 15.1666 12.9724 14.9932C13.1191 14.8466 13.3058 14.6066 13.4658 14.4199C13.6258 14.2332 13.6924 14.0866 13.7991 13.8732C13.9058 13.6466 13.8524 13.4599 13.7724 13.2999C13.6924 13.1399 13.0258 11.5132 12.7591 10.8466C12.4924 10.2066 12.2124 10.2866 12.0124 10.2732H11.3724C11.1458 10.2732 10.7991 10.3532 10.4924 10.6866C10.1991 11.0199 9.34576 11.8199 9.34576 13.4466C9.34576 15.0732 10.5324 16.6466 10.6924 16.8599C10.8524 17.0866 13.0258 20.4199 16.3324 21.8466C17.1191 22.1932 17.7324 22.3932 18.2124 22.5399C18.9991 22.7932 19.7191 22.7532 20.2924 22.6732C20.9324 22.5799 22.2524 21.8732 22.5191 21.0999C22.7991 20.3266 22.7991 19.6732 22.7058 19.5266C22.6124 19.3799 22.4124 19.3132 22.0791 19.1532Z" fill="#026994"/>
</svg>
