<svg width="160" height="58" viewBox="0 0 160 58" fill="none" xmlns="http://www.w3.org/2000/svg">
<path d="M50.8366 36.7812L56.8886 26.0095L50.2331 15.883L43.5153 26.3925L50.8384 36.7812H50.8367H50.8366ZM50.3612 8.77246L61.8648 26.0009L50.9729 44.302L38.9434 26.2233L50.3595 8.77246H50.3612Z" fill="#026994"/>
<path d="M80.4498 8.54834L79.794 44.7506L75.8577 44.3916L76.5573 16.4244L69.5866 21.1963L64.7029 44.7506L62.0781 43.0034L66.4527 18.3473L80.4498 8.54834Z" fill="#026994"/>
<path d="M103.381 44.3909L99.3576 43.3165L98.9629 21.3525L89.1635 34.8593L88.7708 44.1235L85.1413 43.5856L85.0098 10.9188L88.4657 11.9036L89.2967 27.0729L102.856 8.59229L103.381 44.3909Z" fill="#026994"/>
<path d="M136.955 42.7788L133.678 44.3894L128.171 19.761L121.47 32.5779L114.199 20.0318L110.151 44.3965L106.291 42.9151L112.896 8.45814L121.284 23.9223L129.336 8.42529L136.955 42.7788Z" fill="#026994"/>
<path d="M159.767 43.0499L155.785 44.2571L154.954 14.8877L143.801 18.8111L144.455 43.8088L140.255 44.3917L139.688 9.71238L143.231 9.21914L143.45 13.9169L158.715 8.54834L159.767 43.0499Z" fill="#026994"/>
<path d="M45.7402 52.7328C45.7402 51.4152 46.7061 50.4092 48.0083 50.4092C48.8536 50.4092 49.5781 50.8543 49.8885 51.5487L49.5348 51.7625C49.2847 51.2014 48.6982 50.8367 48.0083 50.8367C46.9649 50.8367 46.1801 51.6734 46.1801 52.7328C46.1801 53.7923 46.9649 54.629 48.0083 54.629C48.7071 54.629 49.2762 54.255 49.5607 53.7032L49.9231 53.9256C49.578 54.6114 48.8536 55.0565 48.0083 55.0565C46.7062 55.0565 45.7402 54.0506 45.7402 52.7328Z" fill="#026994"/>
<path d="M53.7988 50.9446H52.2294V54.9596H51.7982V50.9446H50.2285V50.5083H53.7988V50.9446Z" fill="#026994"/>
<path d="M58.2032 52.7328C58.2032 51.6734 57.4097 50.8367 56.3834 50.8367C55.3573 50.8367 54.5553 51.6734 54.5553 52.7328C54.5553 53.7923 55.3573 54.629 56.3834 54.629C57.4097 54.629 58.2032 53.7923 58.2032 52.7328ZM54.1152 52.7328C54.1152 51.4152 55.1243 50.4092 56.3834 50.4092C57.634 50.4092 58.643 51.4151 58.643 52.7328C58.643 54.0505 57.6341 55.0565 56.3834 55.0565C55.1244 55.0565 54.1152 54.0506 54.1152 52.7328Z" fill="#026994"/>
<path d="M63.8431 54.9596H63.4033V51.185L61.7907 53.8114H61.7303L60.1089 51.1671V54.9596H59.6777V50.5083H60.1867L61.7561 53.0635L63.3258 50.5083H63.8431V54.9596Z" fill="#026994"/>
<path d="M68.9629 52.7329C68.9629 51.6735 68.1695 50.8367 67.1432 50.8367C66.1171 50.8367 65.3151 51.6735 65.3151 52.7329C65.3151 53.7923 66.1171 54.629 67.1432 54.629C68.1695 54.629 68.9629 53.7923 68.9629 52.7329ZM69.4027 50.5072V54.9585H68.9629V53.9526C68.6007 54.6202 67.9366 55.0564 67.1088 55.0564C65.8842 55.0564 64.875 54.0506 64.875 52.7328C64.875 51.4152 65.8842 50.4092 67.1088 50.4092C67.9366 50.4092 68.6007 50.8455 68.9629 51.513V50.5072H69.4027V50.5072Z" fill="#026994"/>
<path d="M73.752 50.9446H72.1825V54.9596H71.7513V50.9446H70.1816V50.5083H73.752V50.9446Z" fill="#026994"/>
<path d="M78.1504 52.7328C78.1504 51.6734 77.357 50.8367 76.3307 50.8367C75.3046 50.8367 74.5025 51.6734 74.5025 52.7328C74.5025 53.7923 75.3046 54.629 76.3307 54.629C77.357 54.629 78.1504 53.7923 78.1504 52.7328ZM74.0625 52.7328C74.0625 51.4152 75.0716 50.4092 76.3307 50.4092C77.5813 50.4092 78.5902 51.4151 78.5902 52.7328C78.5902 54.0505 77.5813 55.0565 76.3307 55.0565C75.0717 55.0565 74.0625 54.0506 74.0625 52.7328Z" fill="#026994"/>
<path d="M82.9537 54.9596H82.5225V50.9446H80.3493V53.0903C80.3493 54.6481 79.7109 55.022 78.9004 54.9596V54.5413C79.5645 54.6034 79.9178 54.2385 79.9178 53.0903V50.5083H82.9536V54.9596L82.9537 54.9596Z" fill="#026994"/>
<path d="M88.0782 52.7328C88.0782 51.6734 87.2847 50.8367 86.2584 50.8367C85.2324 50.8367 84.4303 51.6734 84.4303 52.7328C84.4303 53.7923 85.2324 54.629 86.2584 54.629C87.2847 54.629 88.0782 53.7923 88.0782 52.7328ZM83.9902 52.7328C83.9902 51.4152 84.9994 50.4092 86.2584 50.4092C87.5091 50.4092 88.518 51.4151 88.518 52.7328C88.518 54.0505 87.5091 55.0565 86.2584 55.0565C84.9995 55.0565 83.9902 54.0506 83.9902 52.7328Z" fill="#026994"/>
<path d="M92.2462 50.9446H89.978V54.9596H89.5469V50.5083H92.2462V50.9446Z" fill="#026994"/>
<path d="M96.5773 50.5083V54.9596H96.1376V51.283L93.395 54.9596H93.0156V50.5083H93.4467V54.1852L96.1979 50.5083H96.5773Z" fill="#026994"/>
<path d="M101.21 50.5084V54.9596H100.77V53.2147C100.391 53.4106 99.9249 53.5086 99.4591 53.5086C98.3639 53.5086 97.7344 52.9743 97.7344 51.9596V50.5084H98.1656V51.9596C98.1656 52.7341 98.6229 53.0812 99.442 53.0812C99.899 53.0812 100.365 52.9832 100.77 52.7964V50.5083H101.21V50.5084Z" fill="#026994"/>
<path d="M102.693 52.5281H106.16C106.065 51.4419 105.323 50.8365 104.478 50.8365C103.495 50.8365 102.779 51.5399 102.693 52.5281ZM106.608 52.7506C106.608 52.822 106.6 52.893 106.6 52.9642H102.693C102.796 53.9703 103.538 54.629 104.521 54.629C105.228 54.629 105.763 54.2907 106.013 53.8188L106.393 54.0503C106.039 54.6558 105.366 55.0562 104.513 55.0562C103.184 55.0562 102.244 54.0771 102.244 52.7328C102.244 51.4239 103.158 50.4092 104.478 50.4092C105.789 50.4092 106.608 51.5309 106.608 52.7505V52.7506Z" fill="#026994"/>
<path d="M107.322 52.7328C107.322 51.4152 108.288 50.4092 109.591 50.4092C110.436 50.4092 111.16 50.8543 111.471 51.5487L111.117 51.7625C110.867 51.2014 110.28 50.8367 109.591 50.8367C108.547 50.8367 107.762 51.6734 107.762 52.7328C107.762 53.7923 108.547 54.629 109.591 54.629C110.289 54.629 110.858 54.255 111.143 53.7032L111.505 53.9256C111.16 54.6114 110.436 55.0565 109.591 55.0565C108.288 55.0565 107.322 54.0506 107.322 52.7328Z" fill="#026994"/>
<path d="M115.17 54.9596L112.884 52.7696V54.9596H112.453V50.5083H112.884V52.5293L115.066 50.5083H115.67L113.35 52.6451L115.756 54.9596H115.17Z" fill="#026994"/>
<path d="M119.984 52.7329C119.984 51.6735 119.191 50.8367 118.165 50.8367C117.139 50.8367 116.336 51.6735 116.336 52.7329C116.336 53.7923 117.139 54.629 118.165 54.629C119.191 54.629 119.984 53.7923 119.984 52.7329ZM120.424 50.5072V54.9585H119.984V53.9526C119.622 54.6202 118.958 55.0564 118.13 55.0564C116.905 55.0564 115.896 54.0506 115.896 52.7328C115.896 51.4152 116.905 50.4092 118.13 50.4092C118.958 50.4092 119.622 50.8455 119.984 51.513V50.5072H120.424V50.5072Z" fill="#026994"/>
<path d="M124.305 52.7963V50.9445H123.028C122.485 50.9445 122.045 51.3097 122.045 51.8706C122.045 52.4402 122.485 52.7962 123.028 52.7962H124.305V52.7963ZM124.736 54.9596H124.305V53.2238H123.373L122.02 54.9596H121.459L122.839 53.2149C122.157 53.1346 121.606 52.6183 121.606 51.8707C121.606 51.0514 122.261 50.5083 123.028 50.5083H124.736V54.9596Z" fill="#026994"/>
<path d="M131.082 54.9596L128.796 52.7696V54.9596H128.365V50.5083H128.796V52.5293L130.978 50.5083H131.582L129.262 52.6451L131.668 54.9596H131.082Z" fill="#026994"/>
<path d="M136.032 54.9596H135.601V50.9446H133.427V53.0903C133.427 54.6481 132.789 55.022 131.979 54.9596V54.5413C132.643 54.6034 132.996 54.2385 132.996 53.0903V50.5083H136.032V54.9596L136.032 54.9596Z" fill="#026994"/>
<path d="M140.921 50.5083V54.9596H140.481V51.283L137.739 54.9596H137.359V50.5083H137.791V54.1852L140.542 50.5083H140.921Z" fill="#026994"/>
<path d="M145.812 50.5083V54.9596H145.372V52.9476H142.681V54.9596H142.25V50.5083H142.681V52.5204H145.372V50.5083H145.812Z" fill="#026994"/>
<path d="M150.702 50.5083V54.9596H150.263V51.283L147.52 54.9596H147.141V50.5083H147.572V54.1852L150.323 50.5083H150.702Z" fill="#026994"/>
<path d="M154.748 54.9596L152.462 52.7696V54.9596H152.031V50.5083H152.462V52.5293L154.644 50.5083H155.248L152.928 52.6451L155.334 54.9596H154.748Z" fill="#026994"/>
<path d="M159.563 52.7329C159.563 51.6735 158.769 50.8367 157.743 50.8367C156.717 50.8367 155.914 51.6735 155.914 52.7329C155.914 53.7923 156.717 54.629 157.743 54.629C158.769 54.629 159.563 53.7923 159.563 52.7329ZM160.002 50.5072V54.9585H159.563V53.9526C159.2 54.6202 158.536 55.0564 157.708 55.0564C156.484 55.0564 155.475 54.0506 155.475 52.7328C155.475 51.4152 156.484 50.4092 157.708 50.4092C158.536 50.4092 159.2 50.8455 159.563 51.513V50.5072H160.002V50.5072Z" fill="#026994"/>
<path d="M15.8358 54.4601C15.8346 54.4614 15.8336 54.4626 15.8324 54.4636C15.8326 54.4633 15.8336 54.4621 15.8358 54.4601ZM44.8281 40.3921L44.5061 43.0888C44.1588 45.7277 43.4803 48.3555 42.2718 50.7277C41.2239 52.7626 39.33 55.3408 36.8132 55.2816C36.8039 55.2814 36.785 55.2816 36.7901 55.2804C36.7904 55.279 36.7906 55.2792 36.7917 55.2774C36.7953 55.2748 36.799 55.2721 36.7862 55.2625C36.7615 55.2438 36.6794 55.1697 36.5978 55.0506C36.5143 54.932 36.4291 54.7773 36.3501 54.6096C36.2713 54.4404 36.1975 54.2567 36.1287 54.066C35.9915 53.6832 35.8725 53.2741 35.7638 52.8568C35.0111 49.803 34.6216 46.6626 33.9489 43.5795C33.4492 41.2753 32.876 38.9587 31.8455 36.8034C31.6786 36.456 31.4788 36.1059 31.2537 35.7927C28.7175 32.2847 23.3927 32.5823 21.211 36.31C21.0125 36.64 20.8319 37.0078 20.6691 37.3518C18.9257 41.2 18.315 45.4058 17.4289 49.4856C17.154 50.7593 16.8858 51.9992 16.4691 53.1945C16.3498 53.5264 16.2136 53.8662 16.0519 54.1539C16.0136 54.2207 15.9799 54.2757 15.9481 54.3226C14.6184 54.1473 13.5427 52.9342 12.8033 51.8195C11.9372 50.4895 11.3227 48.9477 10.8964 47.393C9.93217 44.0041 10.0914 40.431 9.65584 36.9341C9.44427 35.0585 9.17775 33.1931 8.72061 31.3399C8.37624 29.9316 7.89718 28.5496 7.33353 27.2166C7.21178 26.9294 7.04586 26.5374 6.91729 26.253C6.08823 24.4054 5.2808 22.5996 4.56222 20.7201C3.44834 17.7857 3.10891 14.1068 3.77051 11.0374C3.89316 10.4653 4.06375 9.8876 4.27531 9.34201C5.88036 5.21826 10.4306 3.15444 14.6125 2.75522C15.8212 2.63955 17.0613 2.78202 18.2484 3.03661C19.3147 3.26448 20.3555 3.57851 21.3971 3.90945C21.7073 4.01016 22.1002 4.13314 22.4128 4.22474C22.6249 4.27875 22.9176 4.3583 23.1309 4.4027C23.6593 4.52178 24.2318 4.60997 24.7701 4.66572C24.8913 4.67699 25.1959 4.69808 25.3211 4.70963C25.4356 4.71381 25.7651 4.7271 25.8728 4.73051C26.0028 4.73323 26.29 4.72975 26.424 4.72926C26.5335 4.73079 26.6805 4.71798 26.7911 4.71478C26.8933 4.70643 27.0602 4.70741 27.1576 4.69342C27.265 4.68242 27.6109 4.65486 27.7051 4.64163C27.8256 4.62785 28.1253 4.5822 28.2497 4.56848C28.3523 4.55101 28.6984 4.48796 28.7902 4.47244C28.9193 4.4501 29.1926 4.37987 29.3259 4.3551C29.5544 4.30011 29.8052 4.23183 30.0308 4.16578C30.6925 3.97035 31.3634 3.69634 32.0066 3.45274C33.1356 3.02777 34.2778 2.63022 35.4531 2.3615C36.4386 2.13189 37.4537 2.0064 38.4665 2.03612C41.6912 2.15743 44.9712 3.1218 47.4929 5.19279C48.1816 5.76093 48.7983 6.41544 49.3306 7.13558C49.3547 7.16871 49.4033 7.17657 49.4369 7.14838C49.4646 7.125 49.4683 7.08331 49.4501 7.05185C48.9961 6.26197 48.4337 5.52819 47.7855 4.87361C45.6457 2.7184 42.7402 1.45448 39.7795 0.914533C39.0297 0.780485 38.2452 0.682071 37.4829 0.671492C35.6526 0.650821 33.8402 1.0506 32.0918 1.55707C31.4476 1.7365 30.7879 1.96311 30.1457 2.14755C29.1441 2.43827 28.0952 2.58602 27.0581 2.60621C25.7105 2.62709 24.37 2.41467 23.095 1.98914C22.9292 1.92727 22.6643 1.83693 22.5038 1.77332C21.2117 1.27888 19.8639 0.793291 18.4961 0.45664C16.9302 0.0611082 15.2998 -0.102171 13.6862 0.0652843C9.22506 0.46179 4.65809 2.48343 2.16471 6.35154C0.0285669 9.68715 -0.317474 14.166 0.231014 18.0059C0.423722 19.353 0.746457 20.6906 1.21146 21.9738C1.87119 23.8036 2.6503 25.6382 3.41926 27.4086C3.98521 28.7278 4.49195 29.9589 4.86645 31.3107C4.94819 31.5984 5.03508 31.9321 5.10229 32.223C5.88377 35.5805 6.11167 39.1749 6.33597 42.6576C6.39392 43.6215 6.49848 44.5842 6.65286 45.5422C7.18201 48.7254 8.20092 51.8911 10.1567 54.5197C11.5911 56.4445 13.7469 58.0468 16.2597 57.999C18.3092 57.9424 19.3355 56.0321 19.8794 54.3721C20.3366 52.995 20.6235 51.5697 20.8946 50.1867C21.5701 46.705 22.0449 43.1638 23.1682 39.8346C23.4033 39.1658 23.6542 38.5228 23.9842 37.9053C24.6005 36.7423 25.9088 36.1675 27.1896 36.4285C27.9377 36.5748 28.6118 37.0221 29.0457 37.6496C29.1056 37.7258 29.153 37.8171 29.2065 37.8991C29.2121 37.9082 29.2168 37.9146 29.2229 37.9259L29.241 37.959C29.8762 39.1176 30.3339 40.3472 30.7469 41.6256C31.8277 44.9927 32.4968 48.6576 33.4246 52.0799C33.7526 53.2373 34.0873 54.4006 34.6662 55.4796C35.0846 56.2565 35.7772 57.0689 36.7638 57.0625C41.0115 56.8948 43.3014 52.1717 44.2188 48.5749C44.6753 46.7904 44.9112 44.9591 44.9657 43.125C44.987 42.3811 44.9917 41.1454 45.0037 40.4049C45.0052 40.2954 44.8439 40.28 44.8282 40.3919L44.8281 40.3921Z" fill="#026994"/>
</svg>
