<svg width="32" height="33" viewBox="0 0 32 33" fill="none" xmlns="http://www.w3.org/2000/svg">
<path d="M25.3991 7.04706C24.1765 5.81254 22.7205 4.83369 21.1158 4.16755C19.5111 3.50141 17.7899 3.16131 16.0524 3.16706C8.77242 3.16706 2.83909 9.1004 2.83909 16.3804C2.83909 18.7137 3.45242 20.9804 4.59909 22.9804L2.73242 29.8337L9.73242 27.9937C11.6658 29.0471 13.8391 29.6071 16.0524 29.6071C23.3324 29.6071 29.2658 23.6737 29.2658 16.3937C29.2658 12.8604 27.8924 9.5404 25.3991 7.04706ZM16.0524 27.3671C14.0791 27.3671 12.1458 26.8337 10.4524 25.8337L10.0524 25.5937L5.89242 26.6871L6.99909 22.6337L6.73242 22.2204C5.63582 20.4698 5.05365 18.4461 5.05242 16.3804C5.05242 10.3271 9.98575 5.39373 16.0391 5.39373C18.9724 5.39373 21.7324 6.5404 23.7991 8.6204C24.8226 9.63888 25.6336 10.8505 26.1853 12.1848C26.7369 13.5192 27.018 14.9498 27.0124 16.3937C27.0391 22.4471 22.1058 27.3671 16.0524 27.3671ZM22.0791 19.1537C21.7458 18.9937 20.1191 18.1937 19.8258 18.0737C19.5191 17.9671 19.3058 17.9137 19.0791 18.2337C18.8524 18.5671 18.2258 19.3137 18.0391 19.5271C17.8524 19.7537 17.6524 19.7804 17.3191 19.6071C16.9858 19.4471 15.9191 19.0871 14.6658 17.9671C13.6791 17.0871 13.0258 16.0071 12.8258 15.6737C12.6391 15.3404 12.7991 15.1671 12.9724 14.9937C13.1191 14.8471 13.3058 14.6071 13.4658 14.4204C13.6258 14.2337 13.6924 14.0871 13.7991 13.8737C13.9058 13.6471 13.8524 13.4604 13.7724 13.3004C13.6924 13.1404 13.0258 11.5137 12.7591 10.8471C12.4924 10.2071 12.2124 10.2871 12.0124 10.2737H11.3724C11.1458 10.2737 10.7991 10.3537 10.4924 10.6871C10.1991 11.0204 9.34576 11.8204 9.34576 13.4471C9.34576 15.0737 10.5324 16.6471 10.6924 16.8604C10.8524 17.0871 13.0258 20.4204 16.3324 21.8471C17.1191 22.1937 17.7324 22.3937 18.2124 22.5404C18.9991 22.7937 19.7191 22.7537 20.2924 22.6737C20.9324 22.5804 22.2524 21.8737 22.5191 21.1004C22.7991 20.3271 22.7991 19.6737 22.7058 19.5271C22.6124 19.3804 22.4124 19.3137 22.0791 19.1537Z" fill="#026994"/>
</svg>
