<svg width="28" height="26" viewBox="0 0 28 26" fill="none" xmlns="http://www.w3.org/2000/svg">
<path d="M27.6108 0.77352C27.4559 0.639731 27.2674 0.550752 27.0656 0.51617C26.8638 0.481587 26.6565 0.502713 26.4658 0.577271L1.1333 10.491C0.774285 10.6306 0.470334 10.8831 0.26721 11.2104C0.0640858 11.5377 -0.0272168 11.9221 0.0070479 12.3058C0.0413126 12.6895 0.19929 13.0516 0.457196 13.3378C0.715103 13.6239 1.05898 13.8185 1.43705 13.8923L8.0008 15.181V22.4998C7.99951 22.8984 8.11798 23.2883 8.34086 23.6188C8.56373 23.9493 8.88074 24.2053 9.2508 24.3535C9.62029 24.5044 10.0266 24.5406 10.417 24.4575C10.8073 24.3743 11.1636 24.1756 11.4396 23.8873L14.6046 20.6048L19.6258 24.9998C19.9881 25.3211 20.4553 25.4989 20.9396 25.4998C21.1518 25.4996 21.3626 25.4663 21.5646 25.401C21.8945 25.2963 22.1912 25.107 22.4252 24.852C22.6593 24.5969 22.8224 24.285 22.8983 23.9473L27.9721 1.87477C28.0174 1.67571 28.0078 1.46805 27.9442 1.27405C27.8805 1.08005 27.7653 0.907022 27.6108 0.77352ZM19.9683 5.27352L8.76955 13.2935L2.56955 12.0773L19.9683 5.27352ZM10.0008 22.4998V16.5648L13.0996 19.2823L10.0008 22.4998ZM20.9421 23.4998L10.6071 14.4373L25.4821 3.77602L20.9421 23.4998Z" fill="#026994"/>
</svg>
