<svg width="32" height="32" viewBox="0 0 32 32" fill="none" xmlns="http://www.w3.org/2000/svg">
<g clip-path="url(#clip0_11_243)">
<path d="M16 5.625C16.5178 5.625 16.9375 5.20525 16.9375 4.6875V0.9375C16.9375 0.41975 16.5178 0 16 0C15.4822 0 15.0625 0.41975 15.0625 0.9375V4.6875C15.0625 5.20525 15.4822 5.625 16 5.625Z" fill="#026994"/>
<path d="M22.1431 6.43581C22.6123 6.65463 23.1701 6.45163 23.3889 5.98238L24.9738 2.58369C25.1926 2.11444 24.9896 1.55669 24.5204 1.33781C24.0511 1.119 23.4934 1.322 23.2745 1.79125L21.6896 5.19C21.4708 5.65919 21.6738 6.217 22.1431 6.43581Z" fill="#026994"/>
<path d="M27.3583 9.52831C27.755 9.86119 28.3463 9.80944 28.6792 9.41281L31.0897 6.54006C31.4225 6.14344 31.3707 5.55212 30.9741 5.21931L30.974 5.21925C30.5774 4.88644 29.9861 4.93819 29.6533 5.33481L27.2428 8.20756C26.91 8.60419 26.9617 9.1955 27.3583 9.52831Z" fill="#026994"/>
<path d="M8.61044 5.98238C8.82925 6.45163 9.38706 6.65463 9.85631 6.43581C10.3256 6.217 10.5286 5.65919 10.3097 5.18994L8.72487 1.79125C8.50606 1.322 7.94825 1.119 7.479 1.33781C7.00975 1.55663 6.80675 2.11444 7.02556 2.58369L8.61044 5.98238Z" fill="#026994"/>
<path d="M3.31741 9.41281C3.65022 9.80944 4.24154 9.86119 4.63816 9.52838L4.63822 9.52831C5.03485 9.1955 5.0866 8.60419 4.75379 8.20756L2.34322 5.33488C2.01041 4.93825 1.4191 4.8865 1.02247 5.21931L1.02241 5.21938C0.625786 5.55219 0.574036 6.1435 0.906848 6.54013L3.31741 9.41281Z" fill="#026994"/>
<path d="M31.7839 15.7762C31.7122 15.6898 29.9945 13.635 27.211 11.5608C25.5681 10.3365 23.8916 9.35919 22.228 8.656C20.1189 7.7645 18.0235 7.3125 16 7.3125C13.9764 7.3125 11.881 7.7645 9.77199 8.656C8.10842 9.35919 6.43192 10.3365 4.78898 11.5608C2.00548 13.635 0.287797 15.6898 0.216109 15.7762C-0.0720781 16.1235 -0.0720156 16.6266 0.216172 16.9738C0.278297 17.0487 1.76636 18.8293 4.21355 20.7484C6.31048 22.3929 9.50517 24.4222 13.1875 25.1534V29.1875C13.1875 30.7383 14.4492 32 16 32C17.5508 32 18.8125 30.7383 18.8125 29.1875V25.1534C22.4948 24.4221 25.6895 22.3929 27.7864 20.7484C30.2336 18.8293 31.7217 17.0487 31.7838 16.9738C32.072 16.6266 32.072 16.1235 31.7839 15.7762ZM16 9.1875C18.5847 9.1875 20.6875 11.2903 20.6875 13.875C20.6875 16.4597 18.5847 18.5625 16 18.5625C13.4153 18.5625 11.3125 16.4597 11.3125 13.875C11.3125 11.2903 13.4153 9.1875 16 9.1875ZM13.81 23.3631C10.3975 22.7552 7.37855 20.8427 5.40455 19.2996C3.93117 18.1477 2.81405 17.0326 2.19767 16.3754C3.39173 15.1042 6.46967 12.1149 10.4245 10.4191C9.79936 11.4232 9.43748 12.6074 9.43748 13.875C9.43748 17.1753 11.8864 19.9139 15.0625 20.3703V22.4737C14.5664 22.6497 14.1342 22.9609 13.81 23.3631ZM16.9375 29.1875C16.9375 29.7044 16.5169 30.125 16 30.125C15.483 30.125 15.0625 29.7044 15.0625 29.1875V25.125C15.0625 24.6081 15.483 24.1875 16 24.1875C16.5169 24.1875 16.9375 24.6081 16.9375 25.125V29.1875ZM26.5954 19.2996C24.6214 20.8426 21.6025 22.7552 18.19 23.3631C17.8658 22.9609 17.4335 22.6497 16.9375 22.4737V20.3703C20.1135 19.9139 22.5625 17.1753 22.5625 13.875C22.5625 12.6099 22.2019 11.4279 21.5791 10.4249C23.3232 11.1716 24.856 12.1474 26.0547 13.0376C27.797 14.3314 29.1134 15.6401 29.8026 16.375C29.1862 17.0323 28.069 18.1476 26.5954 19.2996Z" fill="#026994"/>
</g>
<defs>
<clipPath id="clip0_11_243">
<rect width="32" height="32" fill="white"/>
</clipPath>
</defs>
</svg>
